<?xml version="1.0" encoding="UTF-8"?>
<svg version="1.1" xmlns="http://www.w3.org/2000/svg" width="399" height="399">
<path d="M0 0 C131.67 0 263.34 0 399 0 C399 131.67 399 263.34 399 399 C267.33 399 135.66 399 0 399 C0 267.33 0 135.66 0 0 Z " fill="#FDFDFD" transform="translate(0,0)"/>
<path d="M0 0 C0.4021875 0.9590625 0.4021875 0.9590625 0.8125 1.9375 C1.88667752 4.33131686 1.88667752 4.33131686 5 5 C5 3.35 5 1.7 5 0 C6.65 0 8.3 0 10 0 C10 0.99 10 1.98 10 3 C11.32 3 12.64 3 14 3 C16.05068648 8.96468706 18.04716551 14.94392197 19.8125 21 C20.06644531 21.86625 20.32039063 22.7325 20.58203125 23.625 C21 26 21 26 20 30 C14.06 31.32 8.12 32.64 2 34 C2.66 36.31 3.32 38.62 4 41 C7.64527157 55.03574209 6.39673318 67.3387219 2 81 C16.77538755 80.62550861 30.29389903 73.38519962 43.25 66.875 C55.17948346 60.89480557 55.17948346 60.89480557 58.4375 61.3125 C58.953125 61.539375 59.46875 61.76625 60 62 C60.35085645 66.91199028 59.97340187 70.00714607 57 74 C45.45053524 81.06133079 31.18601381 82.89965241 18.12597656 85.56103516 C16.35953842 85.92576366 14.59714448 86.31001375 12.8359375 86.69921875 C7.77179607 87.80454993 3.18725156 88.19212043 -2 88 C-2.26683594 88.72832031 -2.53367188 89.45664063 -2.80859375 90.20703125 C-11.60005105 110.81651311 -33.88342689 126.6282054 -54 135 C-58.23390438 136.47750324 -62.51928251 137.76722456 -66.82421875 139.01953125 C-69.83351284 139.67783034 -69.83351284 139.67783034 -71 141 C-73.67058851 141.14115161 -76.32432238 141.04247107 -79 141 C-75.45801972 152.80660095 -70.48226759 165.57496291 -59.5625 172.375 C-52.31734836 175.67980601 -45.67071426 176.35909587 -37.8125 176.3125 C-36.89065918 176.31048584 -35.96881836 176.30847168 -35.01904297 176.30639648 C-27.60808837 176.19804161 -21.13817252 174.99996488 -14 173 C-11.66571587 172.5791274 -9.35654367 172.27401671 -7 172 C-10.92448893 163.64085153 -10.92448893 163.64085153 -15.875 155.875 C-18 153 -18 153 -18 151 C-13.69584795 152.37615746 -9.50336889 153.77435188 -5.375 155.625 C-1.66926617 157.13474341 0.98668544 157.93554634 5 158 C7.35415106 156.11729543 8.9048662 154.60708947 10.75 152.3125 C11.21792969 151.76916016 11.68585938 151.22582031 12.16796875 150.66601562 C14.11817479 148.38156747 15.96221717 146.05312128 17.703125 143.60546875 C18.34507812 142.81076172 18.34507812 142.81076172 19 142 C19.66 142 20.32 142 21 142 C21 149.59 21 157.18 21 165 C26.03834111 166.84514922 26.03834111 166.84514922 31.08081055 168.67895508 C34.98582788 170.12611727 38.4979273 171.69982207 42 174 C39.36308724 175.75794184 37.80005659 176.47727992 34.83984375 177.2890625 C34.04642578 177.50820313 33.25300781 177.72734375 32.43554688 177.953125 C31.61119141 178.17484375 30.78683594 178.3965625 29.9375 178.625 C29.10927734 178.85445312 28.28105469 179.08390625 27.42773438 179.3203125 C21.28387742 181 21.28387742 181 19 181 C18.67 189.25 18.34 197.5 18 206 C17.34 206 16.68 206 16 206 C15.505 205.0925 15.01 204.185 14.5 203.25 C11.30750055 197.63999191 7.61461877 192.34296804 4 187 C-0.02283967 187.66386763 -3.18804391 189.7497681 -6.625 191.8125 C-20.74987012 200.05506173 -34.99312962 204.17645217 -51.5390625 201.60546875 C-65.67367018 197.62207931 -75.25873142 186.44419878 -82.5 174.3125 C-82.9640625 173.48363281 -83.428125 172.65476562 -83.90625 171.80078125 C-84.2671875 171.20652344 -84.628125 170.61226562 -85 170 C-85.33 170 -85.66 170 -86 170 C-86.20625 170.78375 -86.4125 171.5675 -86.625 172.375 C-88.49986361 177.31782226 -91.14515681 181.56602858 -94 186 C-94.43054688 186.69480469 -94.86109375 187.38960937 -95.3046875 188.10546875 C-102.90346775 199.36874953 -116.32849958 206.7332909 -129.1875 210.375 C-141.94837153 212.63522817 -155.55258671 212.15636761 -166.77734375 205.3046875 C-172.79184909 200.94174236 -177.04597051 196.2662403 -179 189 C-180.1786595 179.44330134 -179.24096774 169.74372361 -175 161 C-173.0234375 159.12890625 -173.0234375 159.12890625 -171 158 C-167.62963689 158.24074022 -166.41201979 158.58798021 -164 161 C-163.86816406 162.82836914 -163.86816406 162.82836914 -164.015625 165.03515625 C-164.93554909 177.00337507 -164.93554909 177.00337507 -159.8125 187.3984375 C-153.5794937 192.90605083 -147.89677788 193.70677897 -139.6015625 193.44921875 C-127.2633249 191.91028456 -117.77112046 184.68165409 -109.88671875 175.49609375 C-102.57735606 165.8259431 -98.68984054 154.4066644 -95 143 C-95.845625 143.02320313 -96.69125 143.04640625 -97.5625 143.0703125 C-109.5393729 143.26085366 -117.90706487 140.43041007 -129 136 C-129 135.34 -129 134.68 -129 134 C-130.33417969 133.62875 -130.33417969 133.62875 -131.6953125 133.25 C-140.3423447 129.97925496 -148.23920728 120.77701238 -153 113 C-153.30550781 111.73671875 -153.61101562 110.4734375 -153.92578125 109.171875 C-155.03403617 104.60473881 -156.11973428 100.9147312 -160 98 C-168.95786818 95.04681035 -178.73538 94.77190601 -188.09521484 94.23242188 C-193.0799443 93.93571921 -198.03408291 93.45214686 -203 92.9375 C-203.78640869 92.86426514 -204.57281738 92.79103027 -205.38305664 92.71557617 C-211.66677077 92.11505964 -217.76157077 90.97606908 -223.9453125 89.73046875 C-231.22276307 88.33935189 -238.6324249 87.72481931 -246 87 C-249.7853539 77.55896687 -250.06659773 71.09206162 -246.19140625 61.46484375 C-244.56383241 58.09763362 -243.14235319 56.07109642 -240 54 C-233.63964901 53.48107818 -228.79338264 54.73325759 -222.84765625 56.88671875 C-221.98925644 57.18560501 -221.13085663 57.48449127 -220.2464447 57.79243469 C-217.5142277 58.74585902 -214.78822948 59.71570136 -212.0625 60.6875 C-208.49298131 61.94742497 -204.92098412 63.2001412 -201.34765625 64.44921875 C-200.47493576 64.75525024 -199.60221527 65.06128174 -198.70304871 65.37658691 C-192.39696916 67.56808564 -186.05112811 69.55032553 -179.62635803 71.36369324 C-174.03568953 72.94419069 -168.62853813 74.86721439 -163.17578125 76.8671875 C-159.45076008 78.19591584 -155.69332577 79.3389867 -151.890625 80.421875 C-150 81 -150 81 -148 82 C-148 83.32 -148 84.64 -148 86 C-146.35 86.33 -144.7 86.66 -143 87 C-143 89.97 -143 92.94 -143 96 C-146.13349732 97.04449911 -146.98968256 96.93423645 -150 96 C-147.52354035 101.44821123 -142.92446661 104.82512724 -138 108 C-135.83025197 108.72045298 -135.83025197 108.72045298 -134 109 C-134 109.66 -134 110.32 -134 111 C-133.319375 111.17015625 -132.63875 111.3403125 -131.9375 111.515625 C-130.4834375 111.87914062 -130.4834375 111.87914062 -129 112.25 C-127.90429688 112.52070313 -126.80859375 112.79140625 -125.6796875 113.0703125 C-123.15446448 113.70832002 -120.64372376 114.36578681 -118.1328125 115.0546875 C-117.13507813 115.32104004 -117.13507813 115.32104004 -116.1171875 115.59277344 C-114.22448888 116.09842086 -112.33480371 116.61530854 -110.4453125 117.1328125 C-104.40840223 118.52686022 -98.16715831 118.66057314 -92 119 C-92.09459403 114.76787861 -92.20090028 110.53624975 -92.31738281 106.3046875 C-92.35531893 104.86954487 -92.39022862 103.43431854 -92.421875 101.99902344 C-92.60397498 93.83866827 -92.96062705 85.95379416 -95 78 C-95.72445312 78.55429688 -96.44890625 79.10859375 -97.1953125 79.6796875 C-98.64550781 80.76636719 -98.64550781 80.76636719 -100.125 81.875 C-101.55199219 82.95394531 -101.55199219 82.95394531 -103.0078125 84.0546875 C-111.55265484 89.60995053 -122.15814652 88.98188731 -132 88 C-141.05755155 85.73286073 -147.61316607 78.74156751 -152.89453125 71.34765625 C-158.12310431 62.42112285 -158.7235238 52.24290358 -156.34375 42.2421875 C-155.5625 40.125 -155.5625 40.125 -154 37 C-153.67 36.01 -153.34 35.02 -153 34 C-153.804375 33.54625 -154.60875 33.0925 -155.4375 32.625 C-158 31 -158 31 -159 29 C-159.54129128 23.98640045 -159.76641668 20.19752606 -157 15.875 C-156.34 15.25625 -155.68 14.6375 -155 14 C-154.01 14.33 -153.02 14.66 -152 15 C-152.33 15.66 -152.66 16.32 -153 17 C-153.18704404 19.69013339 -153.08581391 22.29686177 -153 25 C-151.87465895 26.35618499 -151.87465895 26.35618499 -148.9375 26.0625 C-147.4834375 26.0315625 -147.4834375 26.0315625 -146 26 C-146.05800781 25.13117188 -146.11601562 24.26234375 -146.17578125 23.3671875 C-146.59016895 12.78254163 -146.59016895 12.78254163 -143.5 9.1875 C-142.2625 8.1046875 -142.2625 8.1046875 -141 7 C-139.68 7.33 -138.36 7.66 -137 8 C-137.495 8.721875 -137.99 9.44375 -138.5 10.1875 C-140.07919285 13.14848659 -140.28178312 14.71253029 -140 18 C-137.23735711 18.59732819 -134.83967231 19 -132 19 C-132.495 17.515 -132.495 17.515 -133 16 C-133.46352685 12.55665766 -133.63626061 10.08036197 -131.8359375 7.0234375 C-129.44059021 4.03846627 -127.81218379 2.26484254 -124.125 1.0625 C-123.42375 1.041875 -122.7225 1.02125 -122 1 C-123.15173355 3.46800047 -124.04783565 5.04783565 -126 7 C-126.33333333 10 -126.33333333 10 -126 13 C-123.57331214 15.42668786 -121.57578956 15.60353787 -118.28662109 16.24121094 C-103.72593772 19.08307825 -95.70461632 26.28124788 -87 38 C-86.40251953 37.07767578 -86.40251953 37.07767578 -85.79296875 36.13671875 C-85.26316406 35.32847656 -84.73335937 34.52023438 -84.1875 33.6875 C-83.40439453 32.48673828 -83.40439453 32.48673828 -82.60546875 31.26171875 C-81.19610151 29.2762598 -79.77903343 27.6508148 -78 26 C-78.309375 25.38125 -78.61875 24.7625 -78.9375 24.125 C-81.28954525 19.4209095 -81.30017388 16.156169 -80 11 C-77.56722313 7.7562975 -76.08345152 6.31299711 -72.1875 5.1875 C-71.465625 5.125625 -70.74375 5.06375 -70 5 C-71.15173355 7.46800047 -72.04783565 9.04783565 -74 11 C-74.16677282 14.58343976 -74.16677282 14.58343976 -74 18 C-71.60931266 19.10636395 -71.60931266 19.10636395 -69 20 C-68.01 19.505 -68.01 19.505 -67 19 C-66.76082166 17.06911914 -66.76082166 17.06911914 -66.75 14.8125 C-66.33351564 10.31734117 -65.14400329 7.99611212 -61.765625 5.01953125 C-58.86191025 3.3428287 -56.23712312 3.61154523 -53 4 C-55 6 -57 8 -59 10 C-59.36760731 12.32817964 -59.70241581 14.6618385 -60 17 C-57.36 17 -54.72 17 -52 17 C-52.12375 15.96875 -52.2475 14.9375 -52.375 13.875 C-51.94657552 9.44794706 -51.14324016 7.99161041 -47.93359375 5.08984375 C-44.44659845 3.1244464 -40.86936753 3.5356759 -37 4 C-37 4.66 -37 5.32 -37 6 C-39.31 6.66 -41.62 7.32 -44 8 C-44.85387105 11.30567489 -44.85387105 11.30567489 -45 15 C-42.97585657 18.08021826 -40.49126701 19.29095848 -37.25 20.8125 C-28.67948643 24.93845356 -22.99183766 31.40857086 -19 40 C-16.06729876 50.66272243 -16.88291136 61.91423726 -22.296875 71.484375 C-25.67266108 76.47062783 -28.75753678 79.92290203 -34 83 C-34.66 83 -35.32 83 -36 83 C-36 83.66 -36 84.32 -36 85 C-43.89951672 89.55741349 -55.53374872 89.23713436 -64.17578125 87.28125 C-69.82139783 85.34471762 -74.35043111 82.71965511 -79 79 C-79.70547919 88.10286542 -80.39042374 97.20711123 -81.0625 106.3125 C-81.19881836 108.15618164 -81.19881836 108.15618164 -81.33789062 110.03710938 C-81.55876508 113.02472697 -81.77946593 116.01235727 -82 119 C-73.73569312 117.92170876 -65.73776451 116.60176132 -57.64453125 114.5859375 C-55 114 -55 114 -52 114 C-52 113.34 -52 112.68 -52 112 C-51.33613281 111.82984375 -50.67226562 111.6596875 -49.98828125 111.484375 C-48.66376953 111.12085938 -48.66376953 111.12085938 -47.3125 110.75 C-46.44238281 110.51796875 -45.57226562 110.2859375 -44.67578125 110.046875 C-41.56269522 108.82890849 -39.55392302 107.1422578 -37 105 C-35.26359153 103.89501279 -33.51305402 102.81195651 -31.75 101.75 C-18.75087012 93.48415436 -7.55284413 82.10987437 -3.92163086 66.70117188 C-2.03495851 56.65497271 -2.66893955 46.16610256 -3 36 C-4.0725 36.33 -5.145 36.66 -6.25 37 C-10 38 -10 38 -14 38 C-15.17860776 34.44133896 -16.34075592 30.87751124 -17.5 27.3125 C-18.00080078 25.80139648 -18.00080078 25.80139648 -18.51171875 24.25976562 C-18.82753906 23.28330078 -19.14335937 22.30683594 -19.46875 21.30078125 C-19.76201172 20.40528564 -20.05527344 19.50979004 -20.35742188 18.5871582 C-21 16 -21 16 -21 11 C-16.05 10.01 -16.05 10.01 -11 9 C-10.67 6.69 -10.34 4.38 -10 2 C-6.38026598 0.68373308 -3.90432869 0 0 0 Z " fill="#080808" transform="translate(256,102)"/>
<path d="M0 0 C-0.36084339 2.74240977 -0.75956354 5.35926242 -1.734375 7.95703125 C-7.05220957 22.28006681 -4.33784672 37.17878973 1 51 C3.01822917 50.90234375 5.03645833 50.8046875 7.0546875 50.70703125 C7.69664062 50.80371094 8.33859375 50.90039062 9 51 C11 54 11 54 10.8125 56.125 C10.544375 56.74375 10.27625 57.3625 10 58 C8.515 58.495 8.515 58.495 7 59 C9.98334854 64.01202555 13.43951988 67.38748484 18 71 C17.21007484 75.24925258 15.15346563 77.08910865 12 80 C17.02242381 78.95508546 17.02242381 78.95508546 20.9375 75.875 C21.288125 75.25625 21.63875 74.6375 22 74 C22.825 74.16113281 23.65 74.32226562 24.5 74.48828125 C28.35103833 75.05132368 32.11785984 75.18385137 36 75.1875 C36.68578125 75.19974609 37.3715625 75.21199219 38.078125 75.22460938 C42.45353643 75.23713441 45.93218046 74.57793 50 73 C51.32911682 72.65023242 52.66082739 72.30903983 54 72 C50.76278463 82.73808025 44.72445587 90.89324486 35.23046875 96.69140625 C25.33815804 101.9486022 15.3909948 102.98035092 4.70703125 99.8515625 C-2.61493445 97.41624234 -9.32718593 94.32739682 -15 89 C-15.62261719 88.43152344 -16.24523437 87.86304688 -16.88671875 87.27734375 C-25.65204913 78.91628437 -30.82966532 68.09557193 -31.16796875 55.890625 C-31.27395965 45.04111722 -30.67462737 35.98670393 -26 26 C-27.32 26.33 -28.64 26.66 -30 27 C-30 27.66 -30 28.32 -30 29 C-51.65197095 36.47406639 -51.65197095 36.47406639 -59 36 C-59 36.66 -59 37.32 -59 38 C-62.20825562 38.05849554 -65.41637233 38.09376162 -68.625 38.125 C-69.52863281 38.14175781 -70.43226563 38.15851563 -71.36328125 38.17578125 C-77.07539655 38.21747552 -82.18671527 38.23529332 -86.86328125 34.51953125 C-87.34152344 33.95621094 -87.81976563 33.39289063 -88.3125 32.8125 C-88.80363281 32.26207031 -89.29476562 31.71164063 -89.80078125 31.14453125 C-91.44684679 28.20091568 -91.58090455 25.31882195 -92 22 C-91.14470703 22.01047363 -90.28941406 22.02094727 -89.40820312 22.03173828 C-63.47641728 23.42022374 -63.47641728 23.42022374 -39 17 C-37.61972647 16.51139101 -36.23071754 16.04707614 -34.8359375 15.6015625 C-29.30767088 13.82370904 -23.98370399 11.60479629 -18.625 9.375 C-16.6800312 8.56948212 -14.73473349 7.7647578 -12.7890625 6.9609375 C-11.94037598 6.60821777 -11.09168945 6.25549805 -10.21728516 5.89208984 C-8.50105599 5.201592 -6.75499483 4.58499828 -5 4 C-5 3.34 -5 2.68 -5 2 C-2 0 -2 0 0 0 Z " fill="#080808" transform="translate(327,202)"/>
<path d="M0 0 C6.18982973 4.77873828 10.16962746 10.64110091 11.37890625 18.4453125 C11.78280255 26.7577589 9.01196418 33.83968225 3.875 40.3125 C-2.44931414 46.87647236 -8.9510082 49.48370838 -18.0625 49.6875 C-25.15465533 49.60260843 -29.89436892 47.95289852 -35 43 C-35.58265625 42.43539062 -36.1653125 41.87078125 -36.765625 41.2890625 C-43.29699403 34.28210835 -44.629184 27.970022 -44.41796875 18.515625 C-43.50814488 10.86290088 -39.85478842 4.95405174 -34 0 C-33.4225 -0.556875 -32.845 -1.11375 -32.25 -1.6875 C-22.1486167 -7.57997359 -9.40139372 -6.33711693 0 0 Z " fill="#F8F8F8" transform="translate(154,129)"/>
<path d="M0 0 C6.08061097 3.54035573 11.65279711 9.10291714 14.125 15.82421875 C15.64507428 23.38387389 15.86085887 31.59690543 11.76171875 38.328125 C11.36597656 38.87984375 10.97023437 39.4315625 10.5625 40 C9.98435547 40.82757813 9.98435547 40.82757813 9.39453125 41.671875 C5.17497934 47.18870015 0.15042424 50.13802381 -6.4375 52 C-15.13953159 53.00556809 -22.17402307 52.78065522 -29.47265625 47.66796875 C-31.83174435 45.66532338 -33.75445107 43.60107562 -35.4375 41 C-35.1075 40.34 -34.7775 39.68 -34.4375 39 C-34.1075 39.33 -33.7775 39.66 -33.4375 40 C-28.96925125 40.45439818 -25.71385289 40.68521764 -21.9375 38.0625 C-19.018089 34.48622153 -18.58019794 32.66407306 -18.93359375 28.16015625 C-19.38042358 25.73245745 -19.38042358 25.73245745 -21.3125 22.9375 C-25.66366599 20.23977709 -29.44194667 19.91805275 -34.4375 21 C-37.01768323 23.22306403 -37.01768323 23.22306403 -38.4375 26 C-39.0975 26.66 -39.7575 27.32 -40.4375 28 C-41.02923241 20.01161249 -39.04707175 13.01299487 -34.0625 6.625 C-25.07533004 -2.36216996 -11.83888829 -5.38460922 0 0 Z " fill="#F9F9F9" transform="translate(217.4375,126)"/>
<path d="M0 0 C0.4846875 0.38671875 0.969375 0.7734375 1.46875 1.171875 C2.47421875 1.95304688 2.47421875 1.95304688 3.5 2.75 C4.1496875 3.26046875 4.799375 3.7709375 5.46875 4.296875 C12.33809859 8.91884411 17.61843491 10.65206212 25.9375 10.5 C27.20110352 10.52320313 27.20110352 10.52320313 28.49023438 10.546875 C36.83984235 10.49545324 43.27649421 7.48943261 50.0625 2.75 C51.375 1.83333333 52.6875 0.91666667 54 0 C56.14121052 9.08264326 56.23841437 17.92710997 56.125 27.1875 C56.11494179 28.63085311 56.105821 30.07421306 56.09765625 31.51757812 C56.07588691 35.01186394 56.04151675 38.50588637 56 42 C47.13971389 42.27098414 39.1038573 41.82620812 30.5 39.6875 C29.56414062 39.47416016 28.62828125 39.26082031 27.6640625 39.04101562 C22.72606534 37.86946531 18.4166133 36.51010856 14 34 C14 33.34 14 32.68 14 32 C13.27167969 31.90203125 12.54335937 31.8040625 11.79296875 31.703125 C8.63203206 30.90736471 6.87109395 29.74822278 4.3125 27.75 C3.16201172 26.87601563 3.16201172 26.87601563 1.98828125 25.984375 C-0.21604539 23.78437906 -1.05215198 21.93984948 -2 19 C-0.02 19 1.96 19 4 19 C4.495 14.545 4.495 14.545 5 10 C3.35 9.67 1.7 9.34 0 9 C0 7.68 0 6.36 0 5 C-0.66 4.67 -1.32 4.34 -2 4 C-1.01 4 -0.02 4 1 4 C0.67 2.68 0.34 1.36 0 0 Z " fill="#F8F8F8" transform="translate(108,179)"/>
<path d="M0 0 C0.268125 0.639375 0.53625 1.27875 0.8125 1.9375 C1.88667752 4.33131686 1.88667752 4.33131686 5 5 C5 3.35 5 1.7 5 0 C6.65 0 8.3 0 10 0 C10 0.99 10 1.98 10 3 C11.32 3 12.64 3 14 3 C16.05068648 8.96468706 18.04716551 14.94392197 19.8125 21 C20.06644531 21.86625 20.32039063 22.7325 20.58203125 23.625 C21 26 21 26 20 30 C14.06 31.32 8.12 32.64 2 34 C2.33 35.65 2.66 37.3 3 39 C1.02 39 -0.96 39 -3 39 C-3 38.01 -3 37.02 -3 36 C-4.60875 36.495 -4.60875 36.495 -6.25 37 C-10 38 -10 38 -14 38 C-15.17860776 34.44133896 -16.34075592 30.87751124 -17.5 27.3125 C-18.00080078 25.80139648 -18.00080078 25.80139648 -18.51171875 24.25976562 C-18.98544922 22.79506836 -18.98544922 22.79506836 -19.46875 21.30078125 C-19.90864258 19.95753784 -19.90864258 19.95753784 -20.35742188 18.5871582 C-21 16 -21 16 -21 11 C-17.7 10.34 -14.4 9.68 -11 9 C-10.67 6.69 -10.34 4.38 -10 2 C-6.38026598 0.68373308 -3.90432869 0 0 0 Z " fill="#0D0D0D" transform="translate(256,102)"/>
<path d="M0 0 C-0.60039674 4.20277719 -1.60678778 7.99451486 -3 12 C-5.97918499 22.54203801 -4.64224979 34.32625812 -0.77734375 44.3984375 C0.03985762 47.13339285 -0.00856194 48.3686361 -1 51 C-2.65 50.67 -4.3 50.34 -6 50 C-5.34 49.34 -4.68 48.68 -4 48 C-4.60062256 47.76289307 -5.20124512 47.52578613 -5.82006836 47.28149414 C-8.5269469 46.21117428 -11.23223541 45.13689225 -13.9375 44.0625 C-14.88302734 43.68931641 -15.82855469 43.31613281 -16.80273438 42.93164062 C-17.70185547 42.57392578 -18.60097656 42.21621094 -19.52734375 41.84765625 C-20.77632446 41.3527771 -20.77632446 41.3527771 -22.05053711 40.84790039 C-24 40 -24 40 -25 39 C-25.01670061 37.28996969 -24.96290858 35.57914122 -24.87890625 33.87109375 C-24.83056641 32.83662109 -24.78222656 31.80214844 -24.73242188 30.73632812 C-24.67634766 29.64771484 -24.62027344 28.55910156 -24.5625 27.4375 C-24.51029297 26.34501953 -24.45808594 25.25253906 -24.40429688 24.12695312 C-24.27415852 21.41770924 -24.13917946 18.70879206 -24 16 C-24.66 16 -25.32 16 -26 16 C-26.3403125 15.0409375 -26.3403125 15.0409375 -26.6875 14.0625 C-27.85250896 11.72806339 -27.85250896 11.72806339 -30.625 11.25 C-31.40875 11.1675 -32.1925 11.085 -33 11 C-33 10.67 -33 10.34 -33 10 C-31.80503906 9.74605469 -30.61007812 9.49210938 -29.37890625 9.23046875 C-21.42177921 7.51534011 -13.67751909 5.7419711 -6 3 C-5.34 3 -4.68 3 -4 3 C-4 2.34 -4 1.68 -4 1 C-2 0 -2 0 0 0 Z " fill="#F1F1F1" transform="translate(301,228)"/>
<path d="M0 0 C-2 2 -4 4 -6 6 C-6.36760731 8.32817964 -6.70241581 10.6618385 -7 13 C-4.36 13 -1.72 13 1 13 C0.87625 11.96875 0.7525 10.9375 0.625 9.875 C1.05342448 5.44794706 1.85675984 3.99161041 5.06640625 1.08984375 C8.55340155 -0.8755536 12.13063247 -0.4643241 16 0 C16 0.66 16 1.32 16 2 C13.69 2.66 11.38 3.32 9 4 C8.14612895 7.30567489 8.14612895 7.30567489 8 11 C10.02414343 14.08021826 12.50873299 15.29095848 15.75 16.8125 C24.38717014 20.97054287 29.86096045 27.42403547 34 36 C34 36.66 34 37.32 34 38 C32.02 38 30.04 38 28 38 C27.72027344 37.34773438 27.44054687 36.69546875 27.15234375 36.0234375 C23.66826224 28.42791574 19.31481561 22.52908963 11.20703125 19.47265625 C2.44166288 17.59547117 -6.38003212 18.12259724 -14 23 C-16.14117909 24.57138507 -18.043149 26.193676 -20 28 C-20.66 26.02 -21.32 24.04 -22 22 C-22.99 22.99 -23.98 23.98 -25 25 C-25.66 24.67 -26.32 24.34 -27 24 C-26.34 22.68 -25.68 21.36 -25 20 C-25.515625 19.525625 -26.03125 19.05125 -26.5625 18.5625 C-28.45812207 15.18334761 -28.21139217 12.95722876 -27.640625 9.19140625 C-26.62757504 5.72603412 -24.87398148 4.09016835 -22 2 C-19.1875 1.1875 -19.1875 1.1875 -17 1 C-18.15173355 3.46800047 -19.04783565 5.04783565 -21 7 C-21.16677282 10.58343976 -21.16677282 10.58343976 -21 14 C-18.60931266 15.10636395 -18.60931266 15.10636395 -16 16 C-15.34 15.67 -14.68 15.34 -14 15 C-13.76082166 13.06911914 -13.76082166 13.06911914 -13.75 10.8125 C-13.33351564 6.31734117 -12.14400329 3.99611212 -8.765625 1.01953125 C-5.86191025 -0.6571713 -3.23712312 -0.38845477 0 0 Z " fill="#0F0F0F" transform="translate(203,106)"/>
<path d="M0 0 C4.00429335 8.0085867 3.62889871 14.27254516 0.93359375 22.66796875 C-0.32219771 25.80482021 -2.05405482 28.24883612 -4 31 C-4 31.99 -4 32.98 -4 34 C-7.3 33.67 -10.6 33.34 -14 33 C-17.55826844 24.84563483 -18.1275167 18.77515221 -15.3125 10.25 C-11.97591544 1.96085438 -8.84589103 -0.74965178 0 0 Z " fill="#0E0E0E" transform="translate(24,156)"/>
<path d="M0 0 C3.63467079 1.62400184 4.77408696 2.66113044 7 6 C7.67085092 9.11678523 7.68360642 11.88402654 7 15 C4.71345477 18.41939287 1.94485965 20.5266285 -2.0703125 21.50390625 C-5.72963024 21.71956946 -7.86611331 21.08545959 -10.9375 19.125 C-13.8625854 16.11127564 -14.21474934 14.29854579 -14.375 10.1875 C-14.31526314 6.43493911 -14.10210616 5.16468736 -12.0625 1.875 C-7.93072464 -0.65465838 -4.72764011 -0.79795015 0 0 Z " fill="#0B0B0B" transform="translate(128,146)"/>
<path d="M0 0 C0.36329537 3.01016161 0.61162751 5.08300728 0 8 C-1.99413452 10.50182757 -4.2557405 12.36089478 -7 14 C-7.66 14 -8.32 14 -9 14 C-9.33 14.99 -9.66 15.98 -10 17 C-13.79186081 18.2639536 -17.3625172 18.18414402 -21.3125 18.1875 C-22.05951172 18.19974609 -22.80652344 18.21199219 -23.57617188 18.22460938 C-28.89961822 18.23863074 -33.17996666 17.41001667 -38 15 C-38 14.34 -38 13.68 -38 13 C-37.23558594 12.79246094 -36.47117187 12.58492187 -35.68359375 12.37109375 C-27.83662102 10.11426284 -20.74538621 7.1490801 -13.40625 3.62109375 C-2.82726204 -1.41363102 -2.82726204 -1.41363102 0 0 Z " fill="#171717" transform="translate(297,192)"/>
<path d="M0 0 C4.70588235 0.70588235 4.70588235 0.70588235 6 2 C6.55324507 7.32385012 6.59008601 11.73240783 4.3125 16.625 C1.79728886 19.20818982 0.55127795 19.80270678 -3 20 C-5.35930537 16.31358535 -5.43072427 13.30724265 -5 9 C-2.40762463 2.40762463 -2.40762463 2.40762463 0 0 Z " fill="#EBEBEB" transform="translate(16,162)"/>
<path d="M0 0 C11.44938934 0.68039404 20.90419093 3.78093008 29.125 12.16796875 C30.80092445 14.07703592 32.42625222 16.00624879 34 18 C33 20 33 20 30 22 C29.484375 21.13375 28.96875 20.2675 28.4375 19.375 C24.40891443 13.37467713 18.94290697 9.08287209 12 7 C5.92066919 6.51437298 -0.00820891 6.93479269 -6 8 C-1.58197723 5.05465149 1.69474291 3.72344415 7 3 C4.69 2.34 2.38 1.68 0 1 C0 0.67 0 0.34 0 0 Z " fill="#181818" transform="translate(132,118)"/>
<path d="M0 0 C4.23490544 0.27321971 7.79859399 1.10574568 11.875 2.25 C12.205 1.59 12.535 0.93 12.875 0.25 C21.6255406 6.10445421 29.21331664 11.60326655 31.875 22.25 C29.895 22.25 27.915 22.25 25.875 22.25 C25.45541016 21.27160156 25.45541016 21.27160156 25.02734375 20.2734375 C21.54967887 12.69190441 17.90146529 8.5395587 10.6875 4.4375 C5.46237756 2.81000285 0.32081011 2.50932429 -5.125 2.25 C-3.125 0.25 -3.125 0.25 0 0 Z " fill="#212121" transform="translate(205.125,121.75)"/>
<path d="M0 0 C1.8454602 3.11421408 2.46369062 5.38321316 2 9 C0.9375 10.8125 0.9375 10.8125 -1 12 C-4.5625 12.375 -4.5625 12.375 -8 12 C-10.31282587 8.53076119 -10.42478586 7.07794425 -10 3 C-7.7109263 -1.03954182 -4.21983723 -0.23885871 0 0 Z " fill="#E5E5E5" transform="translate(260,116)"/>
<path d="M0 0 C1.32 1.32 2.64 2.64 4 4 C3.67 4.66 3.34 5.32 3 6 C2.93003986 7.70702735 2.91559846 9.41668003 2.9375 11.125 C2.95103516 12.49011719 2.95103516 12.49011719 2.96484375 13.8828125 C2.97644531 14.58148438 2.98804687 15.28015625 3 16 C-0.375 16.625 -0.375 16.625 -4 17 C-4.66 16.34 -5.32 15.68 -6 15 C-5.69903201 10.86169011 -5.32101984 8.48152976 -3 5 C-4.65 4.67 -6.3 4.34 -8 4 C-4.77208445 1.8480563 -3.71599191 1.79913557 0 2 C0 1.34 0 0.68 0 0 Z " fill="#ECECEC" transform="translate(121,105)"/>
<path d="M0 0 C0 0.66 0 1.32 0 2 C0.99 2.33 1.98 2.66 3 3 C2.525625 3.350625 2.05125 3.70125 1.5625 4.0625 C-0.67873825 6.84163543 -0.67117658 9.5144717 -1 13 C-3.64 13 -6.28 13 -9 13 C-9.4375 9.875 -9.4375 9.875 -9 6 C-6.67578455 3.18776031 -3.81201966 0 0 0 Z " fill="#D2D2D2" transform="translate(205,106)"/>
<path d="M0 0 C0.99 0.33 1.98 0.66 3 1 C2.67 1.66 2.34 2.32 2 3 C1.84101146 4.91500303 1.84101146 4.91500303 1.875 7 C1.87242188 7.70125 1.86984375 8.4025 1.8671875 9.125 C1.88622764 11.09153775 1.88622764 11.09153775 3 13 C2.01 13.66 1.02 14.32 0 15 C0.66 15.66 1.32 16.32 2 17 C1.67 17.66 1.34 18.32 1 19 C-2.875 17.25 -2.875 17.25 -4 15 C-4.54129128 9.98640045 -4.76641668 6.19752606 -2 1.875 C-1.34 1.25625 -0.68 0.6375 0 0 Z " fill="#0F0F0F" transform="translate(101,116)"/>
<path d="M0 0 C0.99 0 1.98 0 3 0 C7.00429335 8.0085867 6.62889871 14.27254516 3.93359375 22.66796875 C2.67780229 25.80482021 0.94594518 28.24883612 -1 31 C-1 31.99 -1 32.98 -1 34 C-4.3 33.67 -7.6 33.34 -11 33 C-10.67 32.34 -10.34 31.68 -10 31 C-8.63875 30.87625 -8.63875 30.87625 -7.25 30.75 C-3.62306625 29.91301529 -2.2262732 28.70285712 -0.03515625 25.72265625 C3.99744904 19.01179235 3.66304924 10.7552016 2.61328125 3.2265625 C2.41089844 2.49179688 2.20851563 1.75703125 2 1 C1.34 0.67 0.68 0.34 0 0 Z " fill="#585858" transform="translate(21,156)"/>
<path d="M0 0 C5.91492272 0.45224761 11.35199888 1.1582605 17 3 C13.20448324 6.96804025 13.20448324 6.96804025 9.64453125 7.0625 C8.24267578 7.0315625 8.24267578 7.0315625 6.8125 7 C2.40505536 6.95360585 -1.66618466 7.22954394 -6 8 C-1.58197723 5.05465149 1.69474291 3.72344415 7 3 C4.69 2.34 2.38 1.68 0 1 C0 0.67 0 0.34 0 0 Z " fill="#454545" transform="translate(132,118)"/>
<path d="M0 0 C0.33 0.99 0.66 1.98 1 3 C-0.54654287 5.75609585 -2.60884098 7.94666478 -5 10 C-8.375 10.9375 -8.375 10.9375 -11 11 C-11.33 10.01 -11.66 9.02 -12 8 C-10 6 -10 6 -7.6875 5.125 C-4.64354102 3.85078461 -2.49454118 2.13817815 0 0 Z " fill="#0C0C0C" transform="translate(22,177)"/>
<path d="M0 0 C0.33 1.32 0.66 2.64 1 4 C1.99 4 2.98 4 4 4 C4.268125 4.78375 4.53625 5.5675 4.8125 6.375 C5.84814432 9.28114923 5.84814432 9.28114923 9 11 C8.21625 11.309375 7.4325 11.61875 6.625 11.9375 C4.07669872 12.92875038 4.07669872 12.92875038 2 14 C-0.3992233 9.35150485 -0.19957409 5.08913926 0 0 Z " fill="#2A2A2A" transform="translate(7,172)"/>
<path d="M0 0 C2.64 1.98 5.28 3.96 8 6 C7.34 6.66 6.68 7.32 6 8 C5.83312552 10.58354218 5.83312552 10.58354218 6 13 C5.67 12.01 5.34 11.02 5 10 C3.35 9.67 1.7 9.34 0 9 C0 7.68 0 6.36 0 5 C-0.66 4.67 -1.32 4.34 -2 4 C-1.01 4 -0.02 4 1 4 C0.67 2.68 0.34 1.36 0 0 Z " fill="#C8C8C8" transform="translate(108,179)"/>
<path d="M0 0 C-0.78375 0.70125 -1.5675 1.4025 -2.375 2.125 C-5.08360818 5.09157086 -6.01722715 7.1582516 -7 11 C-7.66 9.68 -8.32 8.36 -9 7 C-11.0745356 6.8509288 -11.0745356 6.8509288 -13 8 C-10.15054522 1.35127217 -7.28443449 -0.56034111 0 0 Z " fill="#262626" transform="translate(203,106)"/>
<path d="M0 0 C2 2 2 2 2.125 5.625 C2.08375 6.73875 2.0425 7.8525 2 9 C0.02 9 -1.96 9 -4 9 C-4.8125 7.3125 -4.8125 7.3125 -5 5 C-2.5625 2.25 -2.5625 2.25 0 0 Z " fill="#FAFAFA" transform="translate(201,109)"/>
<path d="M0 0 C0.66 0 1.32 0 2 0 C2.18451025 15.74487472 2.18451025 15.74487472 1 23 C0.67 23 0.34 23 0 23 C0 16.4 0 9.8 0 3 C-0.66 2.67 -1.32 2.34 -2 2 C-1.34 1.34 -0.68 0.68 0 0 Z " fill="#3D3D3D" transform="translate(275,244)"/>
<path d="M0 0 C0.33 0 0.66 0 1 0 C1.03738281 0.59167969 1.07476562 1.18335938 1.11328125 1.79296875 C1.51376901 6.60667451 2.0385035 10.00841777 5 14 C4.01 14.66 3.02 15.32 2 16 C-2.12376682 9.59282511 -2.12376682 9.59282511 -1.8203125 5.6875 C-1.25 3.5 -1.25 3.5 0 0 Z " fill="#DEDEDE" transform="translate(113,152)"/>
<path d="M0 0 C0 2.64 0 5.28 0 8 C-1.98 8.99 -1.98 8.99 -4 10 C-5 9 -5 9 -5.25 6.125 C-5 3 -5 3 -3.625 1.125 C-2 0 -2 0 0 0 Z " fill="#070707" transform="translate(180,113)"/>
<path d="M0 0 C-1.15173355 2.46800047 -2.04783565 4.04783565 -4 6 C-4.39764263 7.98821313 -4.73775349 9.98944339 -5 12 C-5.33 12 -5.66 12 -6 12 C-6.33 10.35 -6.66 8.7 -7 7 C-7.99 7.33 -8.98 7.66 -10 8 C-8.70989008 5.12206249 -7.42638194 3.03816083 -5 1 C-2 0 -2 0 0 0 Z " fill="#262626" transform="translate(134,103)"/>
<path d="M0 0 C-1.39559727 3.3726934 -2.8921588 5.08045102 -6 7 C-8.25 7.6875 -8.25 7.6875 -10 8 C-9.00344362 4.31274141 -8.3417689 3.20648538 -5 1.1875 C-2 0 -2 0 0 0 Z " fill="#292929" transform="translate(186,107)"/>
<path d="M0 0 C0.66 0 1.32 0 2 0 C1.67 3.63 1.34 7.26 1 11 C0.01 11 -0.98 11 -2 11 C-1.85892253 9.54119891 -1.71197585 8.08296449 -1.5625 6.625 C-1.48128906 5.81289062 -1.40007813 5.00078125 -1.31640625 4.1640625 C-1 2 -1 2 0 0 Z " fill="#090909" transform="translate(10,165)"/>
<path d="M0 0 C0.66 0.66 1.32 1.32 2 2 C0.68 3.65 -0.64 5.3 -2 7 C-1.67 7.66 -1.34 8.32 -1 9 C-4.3 8.67 -7.6 8.34 -11 8 C-10.67 7.34 -10.34 6.68 -10 6 C-9.071875 5.896875 -8.14375 5.79375 -7.1875 5.6875 C-3.18836508 4.82494149 -2.21861852 3.32792778 0 0 Z " fill="#636363" transform="translate(21,181)"/>
<path d="M0 0 C0.33 0 0.66 0 1 0 C1 3.96 1 7.92 1 12 C0.34 12 -0.32 12 -1 12 C-1.99 10.02 -2.98 8.04 -4 6 C-3.34 6 -2.68 6 -2 6 C-1.34 4.02 -0.68 2.04 0 0 Z " fill="#353535" transform="translate(273,296)"/>
<path d="M0 0 C0.33 1.32 0.66 2.64 1 4 C2.32 3.67 3.64 3.34 5 3 C3.47291037 6.43595166 1.40072955 9.11912454 -1 12 C-1.14285714 3.42857143 -1.14285714 3.42857143 0 0 Z " fill="#CDCDCD" transform="translate(178,142)"/>
<path d="M0 0 C0.33 0 0.66 0 1 0 C1 2.31 1 4.62 1 7 C1.66 7.33 2.32 7.66 3 8 C1.71034824 9.37562854 0.37310707 10.70766393 -1 12 C-1.66 12 -2.32 12 -3 12 C-3.33 12.66 -3.66 13.32 -4 14 C-4.99 13.34 -5.98 12.68 -7 12 C-6.030625 11.319375 -5.06125 10.63875 -4.0625 9.9375 C-1.2186553 7.60889305 -1.01085438 7.04729408 -0.125 3.1875 C-0.08375 2.135625 -0.0425 1.08375 0 0 Z " fill="#C5C5C5" transform="translate(297,193)"/>
<path d="M0 0 C0.66 0.33 1.32 0.66 2 1 C1.54625 1.433125 1.0925 1.86625 0.625 2.3125 C-1.20024334 4.10798342 -1.20024334 4.10798342 -3 7 C-4.7265625 8.38671875 -4.7265625 8.38671875 -6.625 9.6875 C-7.57246094 10.34298828 -7.57246094 10.34298828 -8.5390625 11.01171875 C-9.02117187 11.33785156 -9.50328125 11.66398438 -10 12 C-7.75066455 6.93899525 -4.58147862 3.10886049 0 0 Z " fill="#D4D4D4" transform="translate(190,127)"/>
<path d="M0 0 C0.66 0.33 1.32 0.66 2 1 C-0.1875 3.5625 -0.1875 3.5625 -3 6 C-5.8125 5.8125 -5.8125 5.8125 -8 5 C-8.33 4.01 -8.66 3.02 -9 2 C-7.329375 2.061875 -7.329375 2.061875 -5.625 2.125 C-1.95633975 2.41121859 -1.95633975 2.41121859 0 0 Z " fill="#7F7F7F" transform="translate(317,248)"/>
<path d="M0 0 C2.97 0.99 5.94 1.98 9 3 C8.01 3.495 8.01 3.495 7 4 C6.67 4.99 6.34 5.98 6 7 C3.00675737 5.9024777 2.15389099 5.32317108 0.75 2.375 C0.5025 1.59125 0.255 0.8075 0 0 Z " fill="#2A2A2A" transform="translate(238,253)"/>
<path d="M0 0 C0.39832031 0.49113281 0.79664063 0.98226562 1.20703125 1.48828125 C3.5121755 3.43183425 4.7196719 3.316536 7.6875 3.1875 C8.89986328 3.14689453 8.89986328 3.14689453 10.13671875 3.10546875 C10.75160156 3.07066406 11.36648437 3.03585938 12 3 C10 5 10 5 8.08984375 5.16015625 C7.37957031 5.12792969 6.66929687 5.09570312 5.9375 5.0625 C4.638125 5.041875 3.33875 5.02125 2 5 C1.67 5.33 1.34 5.66 1 6 C0.34 6 -0.32 6 -1 6 C-1.33 4.35 -1.66 2.7 -2 1 C-1.34 0.67 -0.68 0.34 0 0 Z " fill="#313131" transform="translate(182,162)"/>
<path d="M0 0 C0.99 0.33 1.98 0.66 3 1 C2.34 4.3 1.68 7.6 1 11 C0.67 11 0.34 11 0 11 C-0.33 9.02 -0.66 7.04 -1 5 C-1.33 5.66 -1.66 6.32 -2 7 C-2.66 7 -3.32 7 -4 7 C-2.92598892 4.08482708 -2.22189824 2.22189824 0 0 Z " fill="#353535" transform="translate(101,116)"/>
<path d="M0 0 C0.33 0 0.66 0 1 0 C1.28875 1.11375 1.5775 2.2275 1.875 3.375 C2.69241329 7.00291092 2.69241329 7.00291092 5 9 C2.36 9.66 -0.28 10.32 -3 11 C-3 10.01 -3 9.02 -3 8 C-2.01 7.67 -1.02 7.34 0 7 C0 4.69 0 2.38 0 0 Z " fill="#161616" transform="translate(180,114)"/>
<path d="M0 0 C0.99 0.33 1.98 0.66 3 1 C-0.32307692 4.93846154 -0.32307692 4.93846154 -3.75 5.25 C-4.4925 5.1675 -5.235 5.085 -6 5 C-5.67 4.01 -5.34 3.02 -5 2 C-3 1.375 -3 1.375 -1 1 C-0.67 0.67 -0.34 0.34 0 0 Z " fill="#E0E0E0" transform="translate(345,277)"/>
<path d="M0 0 C0.66 0 1.32 0 2 0 C2 1.98 2 3.96 2 6 C0.35 6.66 -1.3 7.32 -3 8 C-3.99 7.01 -4.98 6.02 -6 5 C-4.35 5 -2.7 5 -1 5 C-0.67 3.35 -0.34 1.7 0 0 Z " fill="#BDBDBD" transform="translate(188,115)"/>
<path d="M0 0 C0 3 0 3 -1 6 C-1.66 6 -2.32 6 -3 6 C-3 6.66 -3 7.32 -3 8 C-4.65 8.66 -6.3 9.32 -8 10 C-7.04367001 8.70684939 -6.08486149 7.41553147 -5.125 6.125 C-4.59132813 5.40570313 -4.05765625 4.68640625 -3.5078125 3.9453125 C-2 2 -2 2 0 0 Z " fill="#222222" transform="translate(272,248)"/>
<path d="M0 0 C0.33 0 0.66 0 1 0 C1 1.98 1 3.96 1 6 C1.66 6.33 2.32 6.66 3 7 C2.75 8.875 2.75 8.875 2 11 C0.02 11.99 0.02 11.99 -2 13 C-1.34 8.71 -0.68 4.42 0 0 Z " fill="#1F1F1F" transform="translate(22,166)"/>
<path d="M0 0 C0.33 0 0.66 0 1 0 C1.33 2.97 1.66 5.94 2 9 C-0.31 9.33 -2.62 9.66 -5 10 C-4.360625 9.46375 -3.72125 8.9275 -3.0625 8.375 C-0.61470596 5.55632807 -0.33285388 3.66139268 0 0 Z " fill="#D3D3D3" transform="translate(122,112)"/>
<path d="M0 0 C2.475 0.99 2.475 0.99 5 2 C5 2.99 5 3.98 5 5 C4.01 5.33 3.02 5.66 2 6 C1.01 5.01 0.02 4.02 -1 3 C-0.67 2.01 -0.34 1.02 0 0 Z " fill="#121212" transform="translate(226,130)"/>
<path d="M0 0 C0.99 0.66 1.98 1.32 3 2 C2.6875 3.875 2.6875 3.875 2 6 C1.01 6.66 0.02 7.32 -1 8 C-1 5.16032769 -0.59732819 2.76264289 0 0 Z " fill="#1B1B1B" transform="translate(342,271)"/>
<path d="M0 0 C-1.485 1.485 -1.485 1.485 -3 3 C-2.01 3.33 -1.02 3.66 0 4 C-4.75 3.125 -4.75 3.125 -7 2 C-7 1.34 -7 0.68 -7 0 C-3.86650268 -1.04449911 -3.01031744 -0.93423645 0 0 Z " fill="#575757" transform="translate(266,205)"/>
<path d="M0 0 C0.33 0 0.66 0 1 0 C1.05399736 1.45792884 1.09279177 2.91642712 1.125 4.375 C1.14820312 5.18710938 1.17140625 5.99921875 1.1953125 6.8359375 C1 9 1 9 -1 11 C-2.26264601 6.70700357 -1.62950412 4.12168689 0 0 Z " fill="#C6C6C6" transform="translate(113,152)"/>
<path d="M0 0 C0.99 0.33 1.98 0.66 3 1 C1.02 3.97 1.02 3.97 -1 7 C-1.66 6.67 -2.32 6.34 -3 6 C-1.125 1.125 -1.125 1.125 0 0 Z " fill="#E2E2E2" transform="translate(170,134)"/>
<path d="M0 0 C2.125 0.375 2.125 0.375 4 1 C2.625 2.5 2.625 2.5 1 4 C0.34 4 -0.32 4 -1 4 C-1.99 4.66 -2.98 5.32 -4 6 C-2.84826645 3.53199953 -1.95216435 1.95216435 0 0 Z " fill="#393939" transform="translate(115,109)"/>
<path d="M0 0 C1.32 1.32 2.64 2.64 4 4 C3.67 4.66 3.34 5.32 3 6 C1.68 5.67 0.36 5.34 -1 5 C-0.67 3.35 -0.34 1.7 0 0 Z " fill="#C9C9C9" transform="translate(170,271)"/>
</svg>
