<?xml version="1.0" encoding="UTF-8"?>
<svg version="1.1" xmlns="http://www.w3.org/2000/svg" width="256" height="256">
<path d="M0 0 C84.48 0 168.96 0 256 0 C256 84.48 256 168.96 256 256 C171.52 256 87.04 256 0 256 C0 171.52 0 87.04 0 0 Z " fill="#FDFDFD" transform="translate(0,0)"/>
<path d="M0 0 C-0.350625 0.556875 -0.70125 1.11375 -1.0625 1.6875 C-2.22315134 4.55043998 -1.69931438 6.05114287 -1 9 C0.2684375 9.31130859 0.2684375 9.31130859 1.5625 9.62890625 C9.0991318 11.67578693 14.9045644 13.90152589 20 20 C20.99 21.98 20.99 21.98 22 24 C23.98 21.03 25.96 18.06 28 15 C27.01 14.01 27.01 14.01 26 13 C25.625 10.125 25.625 10.125 26 7 C28 4.625 28 4.625 30 3 C30.99 3.33 31.98 3.66 33 4 C32.34 4.99 31.68 5.98 31 7 C31 8.32 31 9.64 31 11 C32.32 11.33 33.64 11.66 35 12 C34.896875 11.278125 34.79375 10.55625 34.6875 9.8125 C35 7 35 7 37.25 4.125 C40 2 40 2 42.3125 2.1875 C42.869375 2.455625 43.42625 2.72375 44 3 C43.01 3.66 42.02 4.32 41 5 C40.27034634 7.56282742 40.27034634 7.56282742 40 10 C41.65 10 43.3 10 45 10 C44.9175 9.236875 44.835 8.47375 44.75 7.6875 C45 5 45 5 46.6875 3.1875 C49.34230436 1.82422208 51.05574183 1.75464515 54 2 C53.319375 2.556875 52.63875 3.11375 51.9375 3.6875 C49.74989081 5.82554128 49.74989081 5.82554128 49.875 8.5625 C51.46771696 12.01338675 53.57894154 12.48683953 57 14 C62.0531424 17.20443176 64.97999369 21.42842521 67 27 C67.97774426 33.4143395 67.7342443 39.50394833 64.40234375 45.18359375 C60.5692046 50.14852328 56.03344907 54.11064815 50 56 C42.26055002 56.8425224 36.3281914 56.67735886 30 52 C28.515 51.01 28.515 51.01 27 50 C26.67 58.25 26.34 66.5 26 75 C43.36480959 72.68469206 57.15120209 67.66953107 69.25 54.5625 C74.65754256 46.64431269 76.08019037 39.62021137 76.5625 30.1875 C76.62727539 29.00510742 76.62727539 29.00510742 76.69335938 27.79882812 C76.79878321 25.86605785 76.89983094 23.93304974 77 22 C74.36 22.66 71.72 23.32 69 24 C68.33030409 21.5424552 67.6641232 19.08405076 67 16.625 C66.80921875 15.92632812 66.6184375 15.22765625 66.421875 14.5078125 C65 9.2265625 65 9.2265625 65 7 C67.31 6.34 69.62 5.68 72 5 C72 3.35 72 1.7 72 0 C77.625 -0.25 77.625 -0.25 81 2 C81 1.34 81 0.68 81 0 C83.8125 0 83.8125 0 87 1 C89.87543302 6.55256031 90.51670508 11.81382508 91 18 C87.7 18.99 84.4 19.98 81 21 C81.24169922 22.46759766 81.24169922 22.46759766 81.48828125 23.96484375 C82.08625223 28.17180773 82.18372749 32.31842505 82.1875 36.5625 C82.19974609 37.29146484 82.21199219 38.02042969 82.22460938 38.77148438 C82.23667847 43.24107188 81.68355632 46.78778202 80 51 C89.58495943 48.85115954 98.21396022 45.83634983 107.09521484 41.64257812 C107.8217627 41.30162109 108.54831055 40.96066406 109.296875 40.609375 C109.93979492 40.29967773 110.58271484 39.98998047 111.24511719 39.67089844 C113 39 113 39 116 39 C116.36804788 44.52071821 116.36804788 44.52071821 114.79394531 46.57055664 C108.66498481 51.45420712 100.0146418 52.46309767 92.49829102 53.56933594 C82.62448593 54.79053799 82.62448593 54.79053799 74.17578125 59.44921875 C72.51356995 62.21255241 72.51356995 62.21255241 71.3046875 65.15234375 C66.23787803 76.21133808 51.66287861 82.66301134 40.984375 86.96484375 C36.72640684 88.44175679 32.45198982 89.34008116 28 90 C30.75804248 99.40241754 34.45237729 105.59412304 42.671875 111.125 C46.14845091 112.43163256 49.58861231 112.28820578 53.25 112.25 C53.97574219 112.25773437 54.70148438 112.26546875 55.44921875 112.2734375 C60.61631028 112.2550165 65.01367331 111.32547925 70 110 C71.32 110 72.64 110 74 110 C71.69 106.04 69.38 102.08 67 98 C69 97 69 97 70.76953125 97.55859375 C72.12397282 98.1412885 73.47814287 98.72461482 74.83203125 99.30859375 C77.4780374 100.15245517 79.23915183 100.41778826 82 100 C84.2980442 98.05264106 84.2980442 98.05264106 86.25 95.5 C87.48897099 93.99087744 88.73611192 92.48831681 90 91 C90.33 91 90.66 91 91 91 C91 95.95 91 100.9 91 106 C92.588125 106.433125 94.17625 106.86625 95.8125 107.3125 C99.78878538 108.39694147 100.95664473 108.95664473 104 112 C99.71 113.32 95.42 114.64 91 116 C90.67 120.95 90.34 125.9 90 131 C89.34 131 88.68 131 88 131 C86.71993203 129.21601386 85.52339649 127.37146094 84.375 125.5 C83.74335938 124.4790625 83.11171875 123.458125 82.4609375 122.40625 C81.73777344 121.21515625 81.73777344 121.21515625 81 120 C75.92598289 121.95955512 71.0616021 124.31636068 66.15625 126.66015625 C58.94520751 129.72127949 50.23330779 130.39446 42.75 127.8125 C35.18728239 124.45471499 31.01613223 120.12988603 26.48046875 113.20703125 C25.05059336 110.92171528 25.05059336 110.92171528 23 109 C22.58041016 109.94359375 22.58041016 109.94359375 22.15234375 110.90625 C16.22303321 123.56561399 9.05156194 129.12582182 -3.94921875 134.13671875 C-11.43763787 136.25572083 -19.54496185 136.15293343 -26.625 132.8125 C-31.64904782 129.89690504 -34.73299902 126.33749598 -37 121 C-37.78465916 114.34568275 -37.2442153 108.86454305 -34 103 C-33.34 102.34 -32.68 101.68 -32 101 C-29.375 101.375 -29.375 101.375 -27 102 C-27.05220703 103.19496094 -27.05220703 103.19496094 -27.10546875 104.4140625 C-27.44666467 112.6840672 -27.44666467 112.6840672 -24 120 C-20.21863521 123.54502949 -15.95048881 123.62412045 -10.98046875 123.4765625 C-3.55098533 122.28862413 3.11264161 118.00477824 7.66015625 112.046875 C12.05863289 105.32733634 15.50408655 98.92834128 17 91 C15.72125 91.061875 14.4425 91.12375 13.125 91.1875 C2.37094481 91.13693234 -5.70291012 86.55796106 -13.6875 79.6875 C-18.09525495 74.56497398 -21.55058358 69.29868574 -24 63 C-24.99104736 62.86424561 -25.98209473 62.72849121 -27.00317383 62.58862305 C-35.73243266 61.39126776 -44.45998275 60.18231011 -53.18518066 58.95568848 C-56.63528515 58.47066894 -60.08557442 57.98831841 -63.53759766 57.51708984 C-66.23532682 57.14856194 -68.93033974 56.76520811 -71.625 56.375 C-72.37370361 56.27662842 -73.12240723 56.17825684 -73.89379883 56.0769043 C-75.9140625 55.7734375 -75.9140625 55.7734375 -79 55 C-81.97085927 50.54371109 -81.63386104 46.22748929 -81 41 C-79.80149511 38.1962578 -78.16585401 36.16585401 -76 34 C-70.50609051 33.41554154 -66.89340779 34.69051539 -61.875 36.85546875 C-57.44973662 38.61715648 -52.881662 39.80012022 -48.296875 41.07421875 C-44.1401398 42.24145363 -40.07661109 43.58257505 -36 45 C-34.59252432 45.47158226 -33.18496358 45.94291068 -31.77734375 46.4140625 C-30.226366 46.94213155 -28.67558676 47.47078398 -27.125 48 C-26.37436279 48.24927246 -25.62372559 48.49854492 -24.8503418 48.75537109 C-21.10944907 50.04796459 -18.74451979 51.23247887 -16 54 C-14.515 54.495 -14.515 54.495 -13 55 C-13.33 56.98 -13.66 58.96 -14 61 C-15.32 61 -16.64 61 -18 61 C-12.96080406 69.15869819 -3.19010957 72.32795337 5.6875 74.45703125 C10.42278418 75.2332158 15.22122964 75.56556633 20 76 C19.34 67.75 18.68 59.5 18 51 C15.36597394 51 14.42423373 52.02871402 12.25 53.5 C6.05054472 56.98969337 -0.06777754 57.10722998 -7 56 C-13.04985188 53.66095843 -17.60679249 49.19089119 -20.97265625 43.69921875 C-23.77267431 36.3425173 -22.71319249 28.20965263 -20 21 C-20.99 20.67 -21.98 20.34 -23 20 C-24.52491998 16.95016004 -24.23562548 14.3576631 -24 11 C-22.625 9.0625 -22.625 9.0625 -21 8 C-20.34 8 -19.68 8 -19 8 C-19.33 10.31 -19.66 12.62 -20 15 C-17.525 15.495 -17.525 15.495 -15 16 C-15.2475 14.7625 -15.495 13.525 -15.75 12.25 C-16.04296875 10.046875 -16.04296875 10.046875 -16 8 C-14.0625 5.5 -14.0625 5.5 -12 4 C-11.01 4.495 -11.01 4.495 -10 5 C-10.33 6.98 -10.66 8.96 -11 11 C-10.01 11 -9.02 11 -8 11 C-7.9175 9.9275 -7.835 8.855 -7.75 7.75 C-6.76818438 2.84092189 -5.27827079 0 0 0 Z " fill="#0A0A0A" transform="translate(86,66)"/>
<path d="M0 0 C0.66 0.33 1.32 0.66 2 1 C1.67515625 1.98097656 1.3503125 2.96195313 1.015625 3.97265625 C-0.17712749 8.163095 -0.29681261 12.10343293 -0.25 16.4375 C-0.25773437 17.14970703 -0.26546875 17.86191406 -0.2734375 18.59570312 C-0.25493 23.6898934 0.6080302 28.10048724 2 33 C4.475 32.505 4.475 32.505 7 32 C7.59732819 34.76264289 8 37.16032769 8 40 C9.2684375 41.2065625 9.2684375 41.2065625 10.5625 42.4375 C11.366875 43.283125 12.17125 44.12875 13 45 C12.9375 47.25 12.9375 47.25 12 49 C11.01 49.495 11.01 49.495 10 50 C12.47266765 49.65555119 12.47266765 49.65555119 15 49 C15.495 48.01 15.495 48.01 16 47 C16.55945313 47.16242188 17.11890625 47.32484375 17.6953125 47.4921875 C23.63552994 48.80104897 30.09462004 48.24323789 36 47 C33.05978883 53.97792052 30.60099579 58.15942063 24 62 C23.42636719 62.36222656 22.85273438 62.72445312 22.26171875 63.09765625 C16.07342804 65.5665598 7.36995395 64.90628004 1.0078125 63.1953125 C-6.93140779 59.60906035 -12.77993497 53.19233945 -16.5 45.375 C-19.27143543 37.49180587 -19.41731918 27.92111577 -16.5 20.0625 C-16.005 19.051875 -15.51 18.04125 -15 17 C-15.85722656 17.33773437 -16.71445313 17.67546875 -17.59765625 18.0234375 C-18.74105469 18.46945313 -19.88445312 18.91546875 -21.0625 19.375 C-22.18785156 19.81585938 -23.31320313 20.25671875 -24.47265625 20.7109375 C-30.83666856 23.03665629 -36.38983801 24.36226812 -43.125 24.375 C-43.81464844 24.39949219 -44.50429687 24.42398438 -45.21484375 24.44921875 C-48.70019358 24.4692112 -50.87851393 24.06835616 -53.9296875 22.3515625 C-56.397767 19.54819673 -56.74919231 17.67851277 -57 14 C-56.41734375 13.9906543 -55.8346875 13.98130859 -55.234375 13.97167969 C-42.62911747 13.71897995 -31.05028441 12.79174623 -19 9 C-18.21753906 8.7628125 -17.43507812 8.525625 -16.62890625 8.28125 C-11.52075227 6.55455006 -6.96149387 3.82427218 -2.3203125 1.109375 C-1.17175781 0.56023437 -1.17175781 0.56023437 0 0 Z " fill="#0A0A0A" transform="translate(208,130)"/>
<path d="M0 0 C3.5 1.625 3.5 1.625 6 4 C6.94875 4.825 7.8975 5.65 8.875 6.5 C11.88810668 10.31012199 11.57095149 14.48948017 11.3515625 19.16015625 C10.70149279 24.41127491 8.85287766 27.42364012 4.9375 30.8125 C0.1109948 34.406706 -3.12846838 34.34765648 -9 34 C-14.71328704 33.12848164 -17.3499414 31.23097595 -20.77734375 26.7890625 C-23.52363029 22.77053459 -24.57086541 19.12277458 -24.44921875 14.19140625 C-23.36926355 8.92310307 -19.92788328 4.45081386 -15.6953125 1.265625 C-10.69032012 -1.08454534 -5.39959694 -0.60600773 0 0 Z " fill="#F8F8F8" transform="translate(94,80)"/>
<path d="M0 0 C5.48408118 0.08200495 9.31511472 2.89561245 13.3125 6.4375 C17.15250155 10.66870814 18.0642007 15.23883495 17.83203125 20.87109375 C16.71038638 26.41185073 13.48487524 30.81005957 9.0078125 34.1640625 C4.01502707 36.52297272 -1.29568799 36.06145812 -6.6875 35.4375 C-10.37934176 34.01916531 -13.06195122 31.35477643 -15.6875 28.4375 C-15.3575 27.7775 -15.0275 27.1175 -14.6875 26.4375 C-14.3575 26.7675 -14.0275 27.0975 -13.6875 27.4375 C-9.55954872 27.81331502 -9.55954872 27.81331502 -5.8125 26.3125 C-4.14086375 23.52643958 -4.22373376 21.61761138 -4.6875 18.4375 C-6.78058746 16.11184727 -8.10334402 15.5251234 -11.1875 15.0625 C-14.11956287 15.50230943 -15.49557418 16.48912149 -17.6875 18.4375 C-18.19541521 13.10439031 -17.03375913 10.57629419 -13.6875 6.4375 C-9.23279439 2.00661634 -6.10600745 0.72444156 0 0 Z " fill="#F6F6F6" transform="translate(131.6875,78.5625)"/>
<path d="M0 0 C0.44730469 0.39832031 0.89460938 0.79664062 1.35546875 1.20703125 C1.96003906 1.73683594 2.56460938 2.26664062 3.1875 2.8125 C3.77917969 3.33457031 4.37085937 3.85664062 4.98046875 4.39453125 C10.78146593 9.0061557 14.97992227 9.62017528 22.328125 9.50390625 C28.01784398 8.72308311 32.31679325 6.21134177 37 3 C40.79047957 10.58095914 39.09926449 21.72795929 39 30 C26.2465027 30.93699164 14.32739714 27.60859318 4 20 C2.23046875 18.44140625 2.23046875 18.44140625 1 17 C1 16.34 1 15.68 1 15 C2.32 15 3.64 15 5 15 C5.33 13.02 5.66 11.04 6 9 C4.68 8.67 3.36 8.34 2 8 C2 7.34 2 6.68 2 6 C0.68 5.34 -0.64 4.68 -2 4 C-1.34 2.68 -0.68 1.36 0 0 Z " fill="#F3F3F3" transform="translate(67,112)"/>
<path d="M0 0 C1.134375 0.020625 2.26875 0.04125 3.4375 0.0625 C5.40272558 3.99295116 4.21039917 8.86346568 3.4375 13.0625 C2.33072322 15.68997009 1.06568953 17.69899906 -0.5625 20.0625 C0.0975 20.7225 0.7575 21.3825 1.4375 22.0625 C0.15875 21.959375 -1.12 21.85625 -2.4375 21.75 C-3.15679688 21.69199219 -3.87609375 21.63398437 -4.6171875 21.57421875 C-6.5625 21.0625 -6.5625 21.0625 -8.5625 18.0625 C-9.24741203 12.98937253 -9.55926953 7.82289919 -6.625 3.4375 C-3.69611463 0.06484412 -3.69611463 0.06484412 0 0 Z " fill="#242424" transform="translate(13.5625,99.9375)"/>
<path d="M0 0 C-0.350625 0.556875 -0.70125 1.11375 -1.0625 1.6875 C-2.22315134 4.55043998 -1.69931438 6.05114287 -1 9 C0.2684375 9.31130859 0.2684375 9.31130859 1.5625 9.62890625 C9.12102077 11.68173178 14.90208246 13.87703202 20 20 C21.5 22.9375 21.5 22.9375 22 25 C21.505 25.495 21.505 25.495 21 26 C20.76924918 27.34747084 20.58846937 28.70377565 20.4375 30.0625 C20.293125 31.361875 20.14875 32.66125 20 34 C19.67 34 19.34 34 19 34 C18.99613281 33.03900391 18.99613281 33.03900391 18.9921875 32.05859375 C18.72655747 26.11733535 17.7472654 22.73743549 13.66796875 18.375 C9.66894015 15.07837689 6.59813384 14.74791869 1.4375 14.8125 C0.30183594 14.81894531 -0.83382812 14.82539062 -2.00390625 14.83203125 C-5.05175207 14.87134529 -5.05175207 14.87134529 -8 16 C-8.33 15.01 -8.66 14.02 -9 13 C-9.66 12.67 -10.32 12.34 -11 12 C-10.01 11.67 -9.02 11.34 -8 11 C-7.9175 9.9275 -7.835 8.855 -7.75 7.75 C-6.76818438 2.84092189 -5.27827079 0 0 0 Z " fill="#151515" transform="translate(86,66)"/>
<path d="M0 0 C3.4375 1 3.4375 1 5.4375 2.6875 C6.81444267 5.87167993 6.417724 7.70924801 5.4375 11 C4.3125 12.875 4.3125 12.875 2.4375 14 C-1.0625 14.4375 -1.0625 14.4375 -4.5625 14 C-7.18791413 11.79803976 -7.5070448 10.38026421 -8 7 C-7.5625 4 -7.5625 4 -6 1.5625 C-3.5625 0 -3.5625 0 0 0 Z " fill="#101010" transform="translate(80.5625,93)"/>
<path d="M0 0 C0.27096872 2.96020545 0.32650903 4.51631757 -1.36328125 7.01953125 C-5.34445504 10.68157288 -8.11566524 12.47205948 -13.625 12.5625 C-17.67076077 12.29803441 -21.25159784 11.62093066 -25 10 C-25 9.34 -25 8.68 -25 8 C-23.60587891 7.63648438 -23.60587891 7.63648438 -22.18359375 7.265625 C-14.24051584 5.24187337 -14.24051584 5.24187337 -6.875 1.75 C-4 0 -4 0 0 0 Z " fill="#1F1F1F" transform="translate(191,123)"/>
<path d="M0 0 C-0.680625 0.556875 -1.36125 1.11375 -2.0625 1.6875 C-4.25010919 3.82554128 -4.25010919 3.82554128 -4.125 6.5625 C-2.53228304 10.01338675 -0.42105846 10.48683953 3 12 C6.69860208 14.58042006 8.97660958 16.95321917 11 21 C11 21.66 11 22.32 11 23 C10.01 23.33 9.02 23.66 8 24 C7.505 22.948125 7.01 21.89625 6.5 20.8125 C3.96677912 16.3995039 0.61874328 14.03362577 -4 12 C-6.32597511 11.6186926 -8.65912158 11.27539746 -11 11 C-12.9375 9.4375 -12.9375 9.4375 -14 8 C-12.35 8 -10.7 8 -9 8 C-9.0825 7.236875 -9.165 6.47375 -9.25 5.6875 C-9 3 -9 3 -7.3125 1.1875 C-4.65769564 -0.17577792 -2.94425817 -0.24535485 0 0 Z " fill="#1A1A1A" transform="translate(140,68)"/>
<path d="M0 0 C3.44408733 3.32236283 6.47279192 6.41837577 8 11 C7.67 11.33 7.34 11.66 7 12 C6.76924918 13.34747084 6.58846937 14.70377565 6.4375 16.0625 C6.293125 17.361875 6.14875 18.66125 6 20 C5.67 20 5.34 20 5 20 C4.99613281 19.03900391 4.99613281 19.03900391 4.9921875 18.05859375 C4.72655747 12.11733535 3.7472654 8.73743549 -0.33203125 4.375 C-3.97208997 1.37429586 -7.07960341 0.70859976 -11.75 0.375 C-13.22726563 0.26285156 -13.22726563 0.26285156 -14.734375 0.1484375 C-15.48203125 0.09945312 -16.2296875 0.05046875 -17 0 C-17 -0.33 -17 -0.66 -17 -1 C-4.62729689 -2.62914596 -4.62729689 -2.62914596 0 0 Z " fill="#2B2B2B" transform="translate(100,80)"/>
<path d="M0 0 C1.32 0.33 2.64 0.66 4 1 C4.2954439 6.02254631 3.98514628 8.89542386 1 13 C-0.32 12.34 -1.64 11.68 -3 11 C-3.32613618 6.32538149 -2.70582788 3.83325617 0 0 Z " fill="#E9E9E9" transform="translate(10,104)"/>
<path d="M0 0 C2.5 0.3125 2.5 0.3125 5 1 C6.60725635 4.21451269 6.05748185 7.43612536 6 11 C5.67 11 5.34 11 5 11 C4.34 9.02 3.68 7.04 3 5 C2.01 5 1.02 5 0 5 C-1.70271281 7.7243405 -2.18972259 10.04523601 -2.5 13.1875 C-2.665 14.445625 -2.83 15.70375 -3 17 C-3.66 17.33 -4.32 17.66 -5 18 C-5.44571269 11.04192963 -5.68605882 6.39606774 -1 1 C-0.67 0.67 -0.34 0.34 0 0 Z " fill="#1F1F1F" transform="translate(10,100)"/>
<path d="M0 0 C0.78375 0.04125 1.5675 0.0825 2.375 0.125 C3 2.5 3 2.5 3.375 5.125 C2.715 5.785 2.055 6.445 1.375 7.125 C-1.25 6.75 -1.25 6.75 -3.625 6.125 C-4.25 4.25 -4.25 4.25 -4.625 2.125 C-2.625 0.125 -2.625 0.125 0 0 Z " fill="#ECECEC" transform="translate(164.625,74.875)"/>
<path d="M0 0 C1.14926266 0.95421808 2.29430541 1.91352045 3.4375 2.875 C4.07558594 3.40867187 4.71367188 3.94234375 5.37109375 4.4921875 C7 6 7 6 8 8 C7.01 9.485 7.01 9.485 6 11 C6 10.34 6 9.68 6 9 C4.68 8.67 3.36 8.34 2 8 C2 7.34 2 6.68 2 6 C0.68 5.34 -0.64 4.68 -2 4 C-1.34 2.68 -0.68 1.36 0 0 Z " fill="#CECECE" transform="translate(67,112)"/>
<path d="M0 0 C1.98 0.495 1.98 0.495 4 1 C3.88544319 2.91731918 3.75793742 4.8338675 3.625 6.75 C3.55539063 7.81734375 3.48578125 8.8846875 3.4140625 9.984375 C3.0271777 12.80206432 2.44313834 14.5830366 1 17 C-1.12969485 13.80545772 -1.2390304 13.50853075 -0.6875 10 C-0.58824219 9.319375 -0.48898437 8.63875 -0.38671875 7.9375 C0 6 0 6 1 3 C0.67 2.01 0.34 1.02 0 0 Z " fill="#454545" transform="translate(14,100)"/>
<path d="M0 0 C0.66 0.33 1.32 0.66 2 1 C1.195625 1.680625 0.39125 2.36125 -0.4375 3.0625 C-3.45403774 6.52048229 -3.49571403 8.54547397 -4 13 C-4.99 13.66 -5.98 14.32 -7 15 C-7.50632171 9.68362203 -6.24708376 7.17482197 -3 3 C-1.25 1.125 -1.25 1.125 0 0 Z " fill="#E1E1E1" transform="translate(121,82)"/>
<path d="M0 0 C1.32 0 2.64 0 4 0 C4 1.98 4 3.96 4 6 C2.68 6.33 1.36 6.66 0 7 C-1.125 2.25 -1.125 2.25 0 0 Z " fill="#ECECEC" transform="translate(75,71)"/>
<path d="M0 0 C0.33 0 0.66 0 1 0 C1.20625 1.11375 1.4125 2.2275 1.625 3.375 C2.61628301 7.26599195 2.61628301 7.26599195 6.125 8.4375 C7.07375 8.623125 8.0225 8.80875 9 9 C7.68 10.32 6.36 11.64 5 13 C0.125 7.375 0.125 7.375 -1 4 C-0.5625 1.8125 -0.5625 1.8125 0 0 Z " fill="#DDDDDD" transform="translate(72,98)"/>
<path d="M0 0 C3 1 3 1 4 3 C4.13415472 5.6723621 4.04318541 8.32250488 4 11 C3.67 11 3.34 11 3 11 C2.34 9.02 1.68 7.04 1 5 C-0.32 5 -1.64 5 -3 5 C-1.125 1.125 -1.125 1.125 0 0 Z " fill="#0D0D0D" transform="translate(12,100)"/>
<path d="M0 0 C0.99 0.33 1.98 0.66 3 1 C2.01 2.98 1.02 4.96 0 7 C-0.66 6.34 -1.32 5.68 -2 5 C-2.33 6.65 -2.66 8.3 -3 10 C-3.33 10 -3.66 10 -4 10 C-4.25 7.25 -4.25 7.25 -4 4 C-2 1.625 -2 1.625 0 0 Z " fill="#333333" transform="translate(116,69)"/>
<path d="M0 0 C0.99 0 1.98 0 3 0 C1.66666667 2.66666667 0.33333333 5.33333333 -1 8 C-1.33 7.01 -1.66 6.02 -2 5 C-2.99 5.495 -2.99 5.495 -4 6 C-2.84826645 3.53199953 -1.95216435 1.95216435 0 0 Z " fill="#454545" transform="translate(83,66)"/>
<path d="M0 0 C0.66 0.33 1.32 0.66 2 1 C1.34 2.98 0.68 4.96 0 7 C-0.66 6.67 -1.32 6.34 -2 6 C-2.66 6.99 -3.32 7.98 -4 9 C-4.25 6.75 -4.25 6.75 -4 4 C-2 1.6875 -2 1.6875 0 0 Z " fill="#303030" transform="translate(74,70)"/>
<path d="M0 0 C0.598125 0.20625 1.19625 0.4125 1.8125 0.625 C0.8225 1.285 -0.1675 1.945 -1.1875 2.625 C-2.37982613 4.67503955 -2.37982613 4.67503955 -3.1875 6.625 C-3.8475 4.975 -4.5075 3.325 -5.1875 1.625 C-2.1875 -0.375 -2.1875 -0.375 0 0 Z " fill="#2F2F2F" transform="translate(128.1875,68.375)"/>
<path d="M0 0 C2.475 0.99 2.475 0.99 5 2 C4.34 3.32 3.68 4.64 3 6 C3 5.34 3 4.68 3 4 C2.01 4 1.02 4 0 4 C0 2.68 0 1.36 0 0 Z " fill="#E0E0E0" transform="translate(70,117)"/>
<path d="M0 0 C0 0.99 0 1.98 0 3 C-4.29 2.67 -8.58 2.34 -13 2 C-13 1.67 -13 1.34 -13 1 C-11.20843648 0.83222817 -9.4167455 0.66581706 -7.625 0.5 C-6.62726563 0.4071875 -5.62953125 0.314375 -4.6015625 0.21875 C-2 0 -2 0 0 0 Z " fill="#585858" transform="translate(96,78)"/>
</svg>
