<?xml version="1.0" encoding="UTF-8"?>
<svg version="1.1" xmlns="http://www.w3.org/2000/svg" width="800" height="600">
<path d="M0 0 C6.33390771 6.63600188 10.51355275 14.05244747 14.64453125 22.19921875 C15.42473633 23.71515625 15.42473633 23.71515625 16.22070312 25.26171875 C17.21236671 27.19185324 18.19947015 29.12434012 19.18115234 31.05957031 C19.9424485 32.56002006 20.70910046 34.0577996 21.48681641 35.54980469 C23.45703125 39.35634748 23.45703125 39.35634748 23.45703125 41.57421875 C27.22766761 38.44151483 30.87325293 35.22871525 34.25 31.671875 C47.00942246 18.2684765 61.96355419 7.90581245 78.45703125 -0.42578125 C79.15231934 -0.7801123 79.84760742 -1.13444336 80.56396484 -1.49951172 C97.94236005 -10.19855432 114.69293392 -13.86795148 134.08203125 -13.92578125 C135.1062619 -13.93279053 135.1062619 -13.93279053 136.15118408 -13.93994141 C150.35267611 -13.97757145 160.61094965 -11.26659744 172.45703125 -3.42578125 C173.15054688 -2.97460938 173.8440625 -2.5234375 174.55859375 -2.05859375 C180.22772193 2.16203472 182.76867605 8.19548505 185.45703125 14.57421875 C185.79992187 15.36699219 186.1428125 16.15976563 186.49609375 16.9765625 C190.04897078 26.68886653 190.24500514 38.70804888 185.95703125 48.13671875 C185.15624017 49.63375319 184.33559037 51.1214585 183.45703125 52.57421875 C184.0382373 52.61667725 184.61944336 52.65913574 185.21826172 52.70288086 C202.43460291 54.16835371 219.69622899 58.43286541 234.45703125 67.57421875 C235.03388672 67.92403809 235.61074219 68.27385742 236.20507812 68.63427734 C255.23184395 80.43237032 272.75705138 98.83088786 279.45703125 120.57421875 C279.64652344 121.15429688 279.83601562 121.734375 280.03125 122.33203125 C282.2012202 133.75921377 281.01979433 146.04145229 274.95703125 156.01171875 C270.84605075 161.83386879 265.60047745 166.67787761 260.45703125 171.57421875 C261.40320313 172.00089844 262.349375 172.42757812 263.32421875 172.8671875 C274.69493024 178.17565378 284.51616729 184.95877581 294.45703125 192.57421875 C295.48441406 193.35539063 296.51179687 194.1365625 297.5703125 194.94140625 C299.91438179 196.76970915 302.19897559 198.64121909 304.45703125 200.57421875 C305.09769531 201.10789062 305.73835937 201.6415625 306.3984375 202.19140625 C316.44351014 211.26017594 320.96874888 225.99349724 321.83984375 239.19140625 C322.4138165 254.45690364 319.87184849 269.10953114 310.45703125 281.57421875 C307.4441277 284.72332951 304.37581272 287.61482802 300.45703125 289.57421875 C300.90433594 290.0846875 301.35164062 290.59515625 301.8125 291.12109375 C315.03587672 307.02297962 318.16978179 329.49507758 319.45703125 349.57421875 C319.52921875 350.63382812 319.60140625 351.6934375 319.67578125 352.78515625 C320.10849439 365.36989663 316.25584879 374.9469987 308.078125 384.29296875 C301.63827549 391.11714698 294.81422771 396.18384978 286.45703125 400.57421875 C285.61011719 401.02925781 284.76320313 401.48429687 283.890625 401.953125 C269.63778973 408.35463317 252.11486148 404.9139245 238.09863281 399.69628906 C235.55943148 398.726668 233.03735291 397.72302076 230.51953125 396.69921875 C229.73827881 396.38404297 228.95702637 396.06886719 228.15209961 395.74414062 C221.24439839 392.79772079 214.610314 389.02108164 210.45703125 382.57421875 C210.45703125 379.94921875 210.45703125 379.94921875 211.45703125 377.57421875 C213.73828125 376.21484375 213.73828125 376.21484375 216.45703125 375.57421875 C218.61328125 376.84765625 218.61328125 376.84765625 220.95703125 378.94921875 C226.30440914 383.14552619 231.72883915 385.57177335 238.08203125 387.94921875 C238.96439453 388.28228027 239.84675781 388.6153418 240.75585938 388.95849609 C253.86856857 393.73009248 268.53702856 396.65084152 281.87109375 390.96484375 C291.70661965 385.67564855 302.69863124 377.87582815 306.76953125 367.0625 C312.07035213 347.87714262 306.91298846 320.98906936 297.875 303.515625 C295.83885075 300.37634679 293.55804151 297.68851984 291.08203125 294.88671875 C288.94285374 291.8425046 288.84886079 290.22324153 289.45703125 286.57421875 C292.02651716 282.89769809 294.72450634 280.53945548 298.39453125 278.01171875 C304.22263844 273.46253346 306.3318007 268.52530034 308.45703125 261.57421875 C308.70066406 260.84589844 308.94429687 260.11757813 309.1953125 259.3671875 C312.91086252 246.14791771 310.94795656 230.22970817 305.20703125 217.88671875 C299.36067992 208.31996202 289.76446286 201.81575112 280.6015625 195.703125 C278.68836196 194.40785258 276.80143835 193.07094571 274.96875 191.6640625 C266.87616959 185.47561866 257.37063605 182.07208755 247.55859375 179.5703125 C244.45703125 178.57421875 244.45703125 178.57421875 243.01953125 175.94921875 C242.83390625 175.16546875 242.64828125 174.38171875 242.45703125 173.57421875 C244.88304103 171.04712523 247.42408743 168.7251504 250.08203125 166.44921875 C264.27191849 154.11129695 264.27191849 154.11129695 269.6953125 136.6640625 C270.12066388 118.59782226 260.97633114 105.00247385 249.02539062 92.15869141 C244.29665773 87.38137564 238.96888194 83.39633842 233.45703125 79.57421875 C231.85794922 78.46046875 231.85794922 78.46046875 230.2265625 77.32421875 C215.98326671 68.33920062 196.27123903 63.17033148 179.45703125 63.69921875 C175.97014135 63.75968505 174.7765645 63.76303385 171.70703125 61.94921875 C170.0015779 58.70885739 170.61407189 57.1043785 171.45703125 53.57421875 C172.43023352 51.57120134 173.45475042 49.59259277 174.51953125 47.63671875 C179.2378553 37.60743092 178.66085089 28.2461203 175.20703125 17.94921875 C172.53587833 10.87561008 169.32695848 6.70116989 162.76953125 2.88671875 C161.30966797 2.01466797 161.30966797 2.01466797 159.8203125 1.125 C141.42840863 -7.35535521 116.21069117 -3.5143873 97.62890625 2.859375 C81.2872601 8.99603919 67.00433293 17.63800063 53.45703125 28.57421875 C52.32587891 29.47914062 52.32587891 29.47914062 51.171875 30.40234375 C45.34585787 35.30065114 40.07880859 40.86621124 34.7265625 46.26953125 C34.17057373 46.82842041 33.61458496 47.38730957 33.04174805 47.96313477 C31.57892141 49.45030053 30.14542519 50.96616535 28.71484375 52.484375 C26.45703125 54.57421875 26.45703125 54.57421875 23.51953125 54.88671875 C14.43041781 50.99138442 10.69771179 38.31719712 6.71240234 29.85205078 C-0.05056447 15.55440143 -7.8709847 4.28357708 -22.50390625 -2.34765625 C-40.94148442 -8.88849375 -64.4385363 -8.89774019 -83.54296875 -5.42578125 C-84.28369629 -5.29397461 -85.02442383 -5.16216797 -85.78759766 -5.02636719 C-115.3344873 0.44034646 -137.03527675 10.47693477 -154.53588867 35.31835938 C-155.0022876 35.97255859 -155.46868652 36.62675781 -155.94921875 37.30078125 C-156.35462891 37.88424316 -156.76003906 38.46770508 -157.17773438 39.06884766 C-158.82843221 40.88898408 -160.25307294 41.69729521 -162.54296875 42.57421875 C-166.17267088 42.44458653 -168.61821677 42.30120199 -171.515625 40.0234375 C-173.70459409 37.37896039 -174.98958581 34.828168 -176.43237305 31.73632812 C-181.09229858 21.8455195 -186.64452226 15.77135113 -195.54296875 9.57421875 C-196.42855469 8.94 -196.42855469 8.94 -197.33203125 8.29296875 C-204.27832814 3.36139867 -211.04482239 -0.83051518 -219.54296875 -2.42578125 C-220.21585938 -2.55339844 -220.88875 -2.68101563 -221.58203125 -2.8125 C-240.99940552 -5.79086219 -266.37206539 -2.03855194 -283.54296875 7.57421875 C-287.18771697 10.29981035 -290.37704129 13.31071134 -293.54296875 16.57421875 C-294.4865625 17.52167969 -294.4865625 17.52167969 -295.44921875 18.48828125 C-301.68623489 25.1217179 -306.84144152 32.6813103 -312.203125 40.01953125 C-325.2838374 57.90174641 -325.2838374 57.90174641 -330.54296875 60.57421875 C-333.98046875 59.94921875 -333.98046875 59.94921875 -336.54296875 58.57421875 C-349.54012123 72.78332435 -359.29838788 88.52868746 -367.65869141 105.76611328 C-368.87874341 108.26078616 -370.15086786 110.72818622 -371.41796875 113.19921875 C-375.99773058 122.46632071 -377.82987902 132.02114067 -375.390625 142.23046875 C-373.89482874 146.36631096 -371.51593118 149.37929306 -368.54296875 152.57421875 C-368.03507812 153.13496094 -367.5271875 153.69570312 -367.00390625 154.2734375 C-361.71685843 159.45184735 -355.21364936 162.7031745 -348.71386719 166.11083984 C-347.94848633 166.51641113 -347.18310547 166.92198242 -346.39453125 167.33984375 C-345.70182129 167.69852539 -345.00911133 168.05720703 -344.29541016 168.42675781 C-342.54296875 169.57421875 -342.54296875 169.57421875 -340.54296875 172.57421875 C-340.76812696 177.59102509 -342.76632794 180.98387918 -345.54296875 185.01171875 C-346.36344269 186.25294007 -347.18240622 187.49516088 -348 188.73828125 C-348.42104004 189.37282227 -348.84208008 190.00736328 -349.27587891 190.66113281 C-354.68189826 198.82328458 -359.60180209 206.81804688 -362.91796875 216.07421875 C-363.14444092 216.70110596 -363.37091309 217.32799316 -363.60424805 217.97387695 C-367.94718344 230.97004174 -369.26630604 244.57617608 -370.47827148 258.14355469 C-370.72958493 260.93938641 -370.99772722 263.73324723 -371.26757812 266.52734375 C-373.65099733 291.98933258 -374.10509435 317.97473222 -358.35546875 339.57421875 C-356.05404471 342.11372114 -355.07679791 342.50458886 -351.66796875 342.94921875 C-340.91341309 342.6179696 -332.76726348 335.79038482 -325.06274414 329.0324707 C-318.80785301 323.61250317 -318.80785301 323.61250317 -314.54296875 323.57421875 C-312.16796875 325.01171875 -312.16796875 325.01171875 -310.54296875 327.57421875 C-310.98250513 333.9262283 -312.50328652 339.97359073 -314.04296875 346.13671875 C-320.0319719 370.2125114 -319.50114062 394.27900255 -307.55859375 416.4765625 C-302.13692342 424.80870315 -295.26329043 431.18881665 -285.671875 434.15234375 C-274.18319332 436.42899994 -262.27247765 433.90905228 -252.54296875 427.57421875 C-248.3363699 424.10227817 -244.43319425 420.39449552 -240.54296875 416.57421875 C-239.40794922 415.47980469 -239.40794922 415.47980469 -238.25 414.36328125 C-234.95736254 411.1406999 -231.85585905 407.82038169 -228.85546875 404.32421875 C-225.26696009 400.201079 -222.49160538 397.14109486 -217.10546875 395.57421875 C-211.70257011 395.57421875 -208.78049668 398.36338633 -205.0078125 402.0546875 C-204.17378906 402.94800781 -203.33976563 403.84132813 -202.48046875 404.76171875 C-191.25123223 416.24472333 -178.57366021 422.46778725 -163.54296875 427.57421875 C-161.70907593 428.22946533 -161.70907593 428.22946533 -159.83813477 428.89794922 C-149.37987995 432.44537743 -139.61823949 433.35990543 -128.61010742 433.22607422 C-125.95025507 433.19891019 -123.29450271 433.22616925 -120.63476562 433.2578125 C-118.91535542 433.25451331 -117.19594773 433.24811725 -115.4765625 433.23828125 C-114.30606606 433.25346298 -114.30606606 433.25346298 -113.11192322 433.26895142 C-107.16168134 433.14313139 -103.19104472 431.2599457 -98.54296875 427.57421875 C-96.02899334 424.98314593 -96.02899334 424.98314593 -94.04296875 422.07421875 C-93.29144531 421.02621094 -92.53992188 419.97820312 -91.765625 418.8984375 C-89.56933427 415.61365119 -87.51091078 412.27608675 -85.48046875 408.88671875 C-75.87371153 392.97731763 -75.87371153 392.97731763 -67.54296875 390.57421875 C-58.39477458 389.28080691 -51.96844489 391.18731572 -44.54296875 396.57421875 C-41.54390222 399.10504393 -38.68682279 401.68621924 -35.85546875 404.40234375 C-33.54488612 406.69231298 -33.54488612 406.69231298 -30.54296875 408.57421875 C-30.54296875 409.23421875 -30.54296875 409.89421875 -30.54296875 410.57421875 C-29.95773437 410.84234375 -29.3725 411.11046875 -28.76953125 411.38671875 C-26.5190233 412.58698966 -24.85192324 413.91881738 -22.91796875 415.57421875 C-4.80360869 429.86244335 19.15292347 439.96959856 42.45703125 437.57421875 C60.28013994 434.57092661 74.55759141 426.0054649 85.07006836 411.38061523 C87.57685147 407.80799256 90.02980057 404.2012585 92.45703125 400.57421875 C93.78461242 398.59118907 95.11678667 396.61121183 96.45703125 394.63671875 C97.19953125 393.50943359 97.19953125 393.50943359 97.95703125 392.359375 C99.71949187 390.26186328 100.83624454 389.3932146 103.45703125 388.57421875 C107.42925201 388.64876445 109.09377162 389.27167686 112.16796875 391.83203125 C113.48667969 393.25128906 113.48667969 393.25128906 114.83203125 394.69921875 C118.59917094 398.66005321 122.40873708 402.43481523 126.5859375 405.96484375 C127.83659143 407.04056279 129.05372019 408.15648225 130.234375 409.30859375 C140.80412359 419.40907232 155.05843458 424.50817676 169.51953125 425.01171875 C186.30022082 424.56963692 199.6159743 414.34460624 211.109375 402.99487305 C213.03235735 400.96772915 214.71830338 398.75927185 216.45703125 396.57421875 C218.45703125 395.51171875 218.45703125 395.51171875 220.45703125 395.57421875 C222.76953125 397.19921875 222.76953125 397.19921875 224.45703125 399.57421875 C223.68774197 408.23221988 214.63116042 414.68039625 208.5546875 420.11328125 C194.01626206 431.66335443 178.91488703 436.88163374 160.45703125 435.57421875 C143.61181178 433.05378225 128.20045438 423.72399837 116.92578125 411.26171875 C114.55657218 408.4690495 114.55657218 408.4690495 111.45703125 406.57421875 C111.45703125 405.91421875 111.45703125 405.25421875 111.45703125 404.57421875 C109.12488977 403.36793867 106.96060986 402.40874495 104.45703125 401.57421875 C103.83957031 402.52941406 103.22210937 403.48460937 102.5859375 404.46875 C88.90462332 425.44131978 73.66153245 442.17617663 48.39453125 447.984375 C25.60454126 451.39835167 6.1627534 444.93700649 -13.73046875 434.19921875 C-14.56231689 433.75312256 -15.39416504 433.30702637 -16.2512207 432.84741211 C-23.42736784 428.88219017 -30.07338339 424.29835377 -35.73046875 418.32421875 C-39.13646753 414.79772473 -42.88589341 411.79003082 -46.73046875 408.76171875 C-47.33721436 408.2812207 -47.94395996 407.80072266 -48.5690918 407.30566406 C-53.75903548 403.26386185 -56.82048168 401.40303528 -63.4453125 401.11328125 C-68.65547227 402.25815807 -71.47933974 406.59358179 -74.2331543 410.80249023 C-74.64476807 411.44903564 -75.05638184 412.09558105 -75.48046875 412.76171875 C-75.91721924 413.43082275 -76.35396973 414.09992676 -76.80395508 414.78930664 C-78.64328766 417.60916203 -80.4592607 420.44375485 -82.27734375 423.27734375 C-88.16338911 432.32792962 -93.99752609 439.91425861 -104.54296875 443.57421875 C-111.43398633 444.68204736 -118.46226561 444.44037664 -125.41796875 444.32421875 C-126.38172424 444.31591034 -127.34547974 444.30760193 -128.33843994 444.29904175 C-142.58476739 444.15444587 -155.30348456 443.16160132 -168.54296875 437.57421875 C-170.34517463 436.88752133 -172.1486181 436.2040653 -173.953125 435.5234375 C-190.87198877 428.92741827 -203.19915918 419.73190587 -215.54296875 406.57421875 C-220.08640256 410.2089658 -224.07920428 414.13800229 -227.98046875 418.44921875 C-228.45653564 418.97314209 -228.93260254 419.49706543 -229.4230957 420.03686523 C-230.79672589 421.54900881 -232.16987232 423.06159051 -233.54296875 424.57421875 C-239.23203175 430.8353663 -245.20642355 435.34656147 -252.54296875 439.57421875 C-253.25710937 439.98800781 -253.97125 440.40179687 -254.70703125 440.828125 C-264.88825187 446.32436163 -277.77779778 447.64197285 -288.9609375 444.6640625 C-295.19050471 442.20855502 -300.52591057 438.99049475 -305.54296875 434.57421875 C-306.52523437 433.74857422 -306.52523437 433.74857422 -307.52734375 432.90625 C-320.41940557 421.18846513 -327.57647317 401.67815071 -328.74804688 384.58154297 C-328.84650494 381.34699449 -328.87068685 378.12270471 -328.85546875 374.88671875 C-328.85417969 373.74710693 -328.85289062 372.60749512 -328.8515625 371.43334961 C-328.7643816 363.76197564 -328.04347404 356.6711637 -326.19921875 349.234375 C-325.42321108 346.54542378 -325.42321108 346.54542378 -325.54296875 343.57421875 C-326.48398437 344.12851562 -327.425 344.6828125 -328.39453125 345.25390625 C-329.65217479 345.98596742 -330.90999683 346.717722 -332.16796875 347.44921875 C-333.09416016 347.99642578 -333.09416016 347.99642578 -334.0390625 348.5546875 C-341.36837001 352.7979708 -348.03033063 354.71408767 -356.54296875 353.57421875 C-365.9580278 350.19529512 -371.12570432 341.00310336 -375.23046875 332.44921875 C-381.16665889 319.52773511 -383.74473553 306.11560629 -383.71484375 291.9296875 C-383.71321228 291.01986618 -383.71158081 290.11004486 -383.7098999 289.1726532 C-383.63092551 279.9402199 -382.94248826 270.79313742 -382.05371094 261.60717773 C-381.7921323 258.87799163 -381.55347497 256.14742778 -381.31640625 253.41601562 C-378.85159587 226.38876407 -371.81153515 201.21757387 -354.86010742 179.40917969 C-353.3485927 177.67988311 -353.3485927 177.67988311 -353.54296875 175.57421875 C-354.88488281 174.86458984 -354.88488281 174.86458984 -356.25390625 174.140625 C-369.38943884 167.02266025 -381.53365306 158.09529022 -386.2734375 143.29296875 C-390.28935691 126.69024153 -383.33001113 112.55183128 -376.04296875 98.01171875 C-375.73716888 97.40126709 -375.43136902 96.79081543 -375.11630249 96.16186523 C-367.14306314 80.32235439 -358.09693243 66.16784741 -345.54296875 53.57421875 C-344.681875 52.62675781 -343.82078125 51.67929688 -342.93359375 50.703125 C-342.1446875 50.00058594 -341.35578125 49.29804687 -340.54296875 48.57421875 C-338.90328125 48.94546875 -338.90328125 48.94546875 -337.23046875 49.32421875 C-333.64161394 49.97363108 -333.64161394 49.97363108 -331.66796875 48.1484375 C-327.1430861 43.15829473 -323.33731737 37.58464308 -319.46118164 32.08618164 C-302.35116564 7.82242291 -286.67484834 -7.15132506 -256.41796875 -12.61328125 C-233.45126008 -16.05524157 -212.11707577 -15.69871139 -192.84204102 -1.50195312 C-191.06422415 -0.15745605 -189.30179958 1.20499928 -187.54296875 2.57421875 C-186.65714111 3.25242676 -186.65714111 3.25242676 -185.75341797 3.94433594 C-178.37725827 9.64013389 -172.77684734 15.13300626 -168.54296875 23.57421875 C-167.22906285 25.91911147 -165.8860602 28.24581496 -164.54296875 30.57421875 C-164.20152832 30.14189941 -163.86008789 29.70958008 -163.50830078 29.26416016 C-140.21184575 -0.11981076 -113.43398323 -12.58420775 -76.5078125 -17.859375 C-49.95194697 -20.69340018 -20.49882456 -18.39115106 0 0 Z " fill="#9BCDFF" transform="translate(420.54296875,74.42578125)"/>
<path d="M0 0 C1.875 0.6875 1.875 0.6875 2.875 1.6875 C5.52097205 2.01563633 8.15999838 2.29974295 10.8125 2.5625 C31.08723782 4.78259331 31.08723782 4.78259331 37.75 13 C39.6273041 17.48467091 39.45548576 21.08262761 37.8125 25.625 C35.2371946 29.69564401 32.14228679 33.16062057 28.875 36.6875 C29.638125 37.285625 30.40125 37.88375 31.1875 38.5 C32.074375 39.221875 32.96125 39.94375 33.875 40.6875 C34.43058594 41.08582031 34.98617187 41.48414063 35.55859375 41.89453125 C37.63933358 44.72853595 36.95751127 47.14341672 36.625 50.5625 C36.51671875 51.77679688 36.4084375 52.99109375 36.296875 54.2421875 C35.94643317 57.10412912 35.49546318 59.8740204 34.875 62.6875 C36.525 63.0175 38.175 63.3475 39.875 63.6875 C39.875 65.0075 39.875 66.3275 39.875 67.6875 C33.375 70.6875 33.375 70.6875 28.875 70.6875 C28.545 69.3675 28.215 68.0475 27.875 66.6875 C24.62826622 66.06312812 23.03611944 65.87079741 19.875 66.6875 C16.4918847 69.0919585 13.4725239 71.7055426 10.4140625 74.5 C7.875 76.6875 7.875 76.6875 5.875 76.6875 C6.40609375 77.50992188 6.9371875 78.33234375 7.484375 79.1796875 C19.64721549 98.27218415 22.16193104 118.02691139 19.41015625 140.48046875 C17.6925009 148.17434508 14.26654155 158.65696056 7.875 163.6875 C5.6875 163.375 5.6875 163.375 3.875 162.6875 C3.875 158.45336448 4.41717205 157.87244148 6.72265625 154.65625 C11.64873045 146.24017747 13.05812884 136.38857414 12.9375 126.8125 C12.93298828 126.12414062 12.92847656 125.43578125 12.92382812 124.7265625 C12.91216336 123.04683665 12.89423271 121.36715625 12.875 119.6875 C12.17375 120.47253906 11.4725 121.25757813 10.75 122.06640625 C5.40410713 128.00607677 0.02503623 133.569419 -6.125 138.6875 C-7.26976882 139.66877959 -8.41284196 140.65203908 -9.5546875 141.63671875 C-20.05770546 150.68901335 -20.05770546 150.68901335 -25.125 154.6875 C-26.445 154.0275 -27.765 153.3675 -29.125 152.6875 C-28.28303113 147.93534912 -25.27861303 145.91608827 -21.6875 143 C-20.40409341 141.93071228 -19.12154641 140.86039204 -17.83984375 139.7890625 C-17.20675293 139.26344727 -16.57366211 138.73783203 -15.92138672 138.19628906 C-12.65578375 135.45350211 -9.51588205 132.5743382 -6.3671875 129.69921875 C-4.91987102 128.40066825 -3.44700557 127.12979491 -1.9453125 125.89453125 C2.5602909 122.17953373 5.64641186 118.43309859 8.6484375 113.41015625 C9.05320312 112.84167969 9.45796875 112.27320313 9.875 111.6875 C10.535 111.6875 11.195 111.6875 11.875 111.6875 C11.76057539 110.08254433 11.63305306 108.47851881 11.5 106.875 C11.39558594 105.53501953 11.39558594 105.53501953 11.2890625 104.16796875 C11.00854964 101.44351501 11.00854964 101.44351501 8.875 98.6875 C7.36759421 99.87326871 5.86022543 101.05908449 4.35302734 102.24511719 C3.07215483 103.25140041 1.78991784 104.25594915 0.50634766 105.25878906 C-2.3316711 107.47785149 -5.14847151 109.70703223 -7.91796875 112.01171875 C-8.68753906 112.64722656 -9.45710938 113.28273438 -10.25 113.9375 C-10.91257812 114.49953125 -11.57515625 115.0615625 -12.2578125 115.640625 C-14.125 116.6875 -14.125 116.6875 -16.3671875 116.359375 C-16.94726562 116.13765625 -17.52734375 115.9159375 -18.125 115.6875 C-18.125 111.6875 -18.125 111.6875 -16.67553711 110.02758789 C-16.0078833 109.49383545 -15.34022949 108.96008301 -14.65234375 108.41015625 C-13.91693359 107.81396484 -13.18152344 107.21777344 -12.42382812 106.60351562 C-11.2549707 105.68602539 -11.2549707 105.68602539 -10.0625 104.75 C-9.31033203 104.14220703 -8.55816406 103.53441406 -7.78320312 102.90820312 C-3.3373133 99.3399435 1.20494754 95.95591653 5.875 92.6875 C5.30954163 88.72929141 4.06597652 86.0215947 1.875 82.6875 C-2.61258664 84.2258583 -6.26146405 86.69228067 -10.125 89.375 C-15.09417956 92.74064344 -20.09334205 95.97113113 -25.3125 98.9375 C-26.84970703 99.81148437 -26.84970703 99.81148437 -28.41796875 100.703125 C-31.125 101.6875 -31.125 101.6875 -33.48828125 100.859375 C-34.02839844 100.47265625 -34.56851562 100.0859375 -35.125 99.6875 C-35.06640625 97.94140625 -35.06640625 97.94140625 -34.125 95.6875 C-31.78397093 94.16598175 -29.53763181 92.88761085 -27.0625 91.625 C-13.03430136 84.09467055 -0.48628561 74.67310103 11.875 64.6875 C10.82699219 64.43355469 9.77898437 64.17960937 8.69921875 63.91796875 C7.32017401 63.57086225 5.94127522 63.22317556 4.5625 62.875 C3.87220703 62.70935547 3.18191406 62.54371094 2.47070312 62.37304688 C-1.14812665 61.44648659 -3.83111355 60.75480411 -6.125 57.6875 C-5.465 56.3675 -4.805 55.0475 -4.125 53.6875 C-2.18701479 53.99697671 -0.24962574 54.31018834 1.6875 54.625 C2.76644531 54.79902344 3.84539062 54.97304687 4.95703125 55.15234375 C7.875 55.6875 7.875 55.6875 10.875 56.6875 C11.060625 54.893125 11.060625 54.893125 11.25 53.0625 C11.64880462 49.20738866 12.57931438 46.57455687 13.875 42.6875 C5.295 42.6875 -3.285 42.6875 -12.125 42.6875 C-10.77486796 48.3888311 -10.77486796 48.3888311 -9.40209961 54.0847168 C-8.44582688 58.25036602 -7.76830081 61.49794464 -9.125 65.6875 C-10.445 65.6875 -11.765 65.6875 -13.125 65.6875 C-17.75198799 56.43352402 -19.24362683 45.91142882 -20.125 35.6875 C-18.805 35.0275 -17.485 34.3675 -16.125 33.6875 C-15.63 34.1825 -15.63 34.1825 -15.125 34.6875 C-11.57880663 35.21358363 -8.01317514 35.38524592 -4.43457031 35.56152344 C-2.75572764 35.65309667 -1.07800439 35.76595898 0.59863281 35.89160156 C12.90721419 37.17843332 12.90721419 37.17843332 24.28515625 33.59765625 C26.58275946 31.05348099 28.28295842 28.71559062 29.875 25.6875 C30.26816406 24.9965625 30.66132813 24.305625 31.06640625 23.59375 C32.31277366 20.65545387 31.99592826 17.8316347 31.875 14.6875 C30.37576525 14.22666965 28.87556026 13.76899574 27.375 13.3125 C26.5396875 13.05726563 25.704375 12.80203125 24.84375 12.5390625 C13.09087941 9.16784436 0.72639554 6.49145298 -10.53979492 12.65942383 C-13.1758189 14.24358356 -15.7706778 15.88165616 -18.34570312 17.56298828 C-20.91035793 19.18384449 -23.57074672 20.51859772 -26.3125 21.8125 C-27.13105469 22.20695312 -27.94960938 22.60140625 -28.79296875 23.0078125 C-31.58875564 23.82266496 -33.35141446 23.46587747 -36.125 22.6875 C-36.125 21.3675 -36.125 20.0475 -36.125 18.6875 C-34.99320312 18.13320312 -33.86140625 17.57890625 -32.6953125 17.0078125 C-31.21343697 16.2762537 -29.73167185 15.54447122 -28.25 14.8125 C-27.50363281 14.44769531 -26.75726563 14.08289063 -25.98828125 13.70703125 C-24.91513672 13.17529297 -24.91513672 13.17529297 -23.8203125 12.6328125 C-23.16047363 12.30812988 -22.50063477 11.98344727 -21.82080078 11.64892578 C-19.94465314 10.68474181 -19.94465314 10.68474181 -18.125 8.6875 C-18.785 7.3675 -19.445 6.0475 -20.125 4.6875 C-17.37422139 1.93672139 -15.52267689 2.35852238 -11.6875 2.1875 C-7.60923329 2.0052311 -3.46098324 -0.50896812 0 0 Z M19.875 42.6875 C19.36693553 44.41431437 18.86889533 46.14407979 18.375 47.875 C18.0965625 48.83792969 17.818125 49.80085938 17.53125 50.79296875 C16.90822392 53.54095876 16.75197188 55.88348416 16.875 58.6875 C18.1125 59.0175 19.35 59.3475 20.625 59.6875 C21.32109375 59.873125 22.0171875 60.05875 22.734375 60.25 C25.16401861 60.82099349 25.16401861 60.82099349 28.875 60.6875 C29.535 55.7375 30.195 50.7875 30.875 45.6875 C29.8025 45.1925 28.73 44.6975 27.625 44.1875 C27.02171875 43.9090625 26.4184375 43.630625 25.796875 43.34375 C23.58257164 42.47207076 23.58257164 42.47207076 19.875 42.6875 Z " fill="#9BCDFF" transform="translate(440.125,136.3125)"/>
<path d="M0 0 C1.32 0.66 2.64 1.32 4 2 C3.36145015 7.52675903 2.06306646 12.62367351 0.4375 17.9375 C0.20353516 18.71673828 -0.03042969 19.49597656 -0.27148438 20.29882812 C-0.84317421 22.20057187 -1.42095691 24.10048226 -2 26 C0.54278996 25.42125362 3.08435123 24.83803289 5.625 24.25 C6.39102539 24.07315674 7.15705078 23.89631348 7.94628906 23.71411133 C14.07060494 22.27559448 20.05152507 20.54755895 26.046875 18.63671875 C29.12244573 17.97359966 31.00379396 18.1399779 34 19 C34 20.32 34 21.64 34 23 C29.72513138 25.2917536 25.64176472 26.80240452 20.95703125 28.04296875 C19.98161629 28.30295403 19.98161629 28.30295403 18.98649597 28.56819153 C17.62341479 28.93001504 16.2594903 29.2886753 14.89477539 29.64428711 C12.8059357 30.18921246 10.72026605 30.74518072 8.63476562 31.30273438 C-1.56857552 34 -1.56857552 34 -5 34 C-5.19335938 34.78503906 -5.38671875 35.57007813 -5.5859375 36.37890625 C-6.96653221 41.9491275 -8.37388447 47.49622437 -10 53 C-8.68 53 -7.36 53 -6 53 C-4.62079662 54.62891178 -3.29529978 56.30360558 -2 58 C0.07877438 59.75127722 2.10934704 61.36381931 4.3125 62.9375 C4.91989014 63.3713501 5.52728027 63.8052002 6.15307617 64.25219727 C14.19991747 69.7741762 23.06404094 72.83613904 32.375 75.625 C33.57125 76.07875 34.7675 76.5325 36 77 C36.7265625 79.0859375 36.7265625 79.0859375 37 81 C34.71405789 82.42565884 33.50470053 83.06961194 30.79272461 82.69555664 C30.00389893 82.43637451 29.21507324 82.17719238 28.40234375 81.91015625 C27.52352539 81.62406494 26.64470703 81.33797363 25.73925781 81.04321289 C24.3523877 80.55776001 24.3523877 80.55776001 22.9375 80.0625 C21.99100586 79.73693115 21.04451172 79.4113623 20.06933594 79.07592773 C7.03348105 74.42234727 -2.35060397 66.73574409 -12 57 C-12.48919922 58.46373047 -12.48919922 58.46373047 -12.98828125 59.95703125 C-13.42922834 61.24234511 -13.87066008 62.52749278 -14.3125 63.8125 C-14.52583984 64.45509766 -14.73917969 65.09769531 -14.95898438 65.75976562 C-16.13806176 69.15621242 -17.13406949 71.73919265 -20 74 C-21.32 73.34 -22.64 72.68 -24 72 C-23.40490748 67.80397457 -22.43470042 64.05912853 -20.96875 60.0859375 C-20.57042969 58.99539062 -20.17210937 57.90484375 -19.76171875 56.78125 C-19.13716797 55.09515625 -19.13716797 55.09515625 -18.5 53.375 C-17.67537193 51.13344135 -16.8523848 48.89127817 -16.03125 46.6484375 C-15.66580078 45.66020996 -15.30035156 44.67198242 -14.92382812 43.65380859 C-14.15417451 41.44288504 -13.51658906 39.28070013 -13 37 C-14.13179687 37.09539062 -15.26359375 37.19078125 -16.4296875 37.2890625 C-17.91141612 37.40159885 -19.39318945 37.51354758 -20.875 37.625 C-21.62136719 37.68945312 -22.36773437 37.75390625 -23.13671875 37.8203125 C-25.0870047 37.96087365 -27.04469467 37.98759849 -29 38 C-29.66 37.34 -30.32 36.68 -31 36 C-30.46428571 32.46428571 -30.46428571 32.46428571 -29 31 C-26.37420067 30.62404663 -23.7601612 30.2933049 -21.125 30 C-15.48589133 29.39587242 -15.48589133 29.39587242 -10 28 C-8.86064375 25.4424875 -8.86064375 25.4424875 -8.02734375 22.28515625 C-7.68509766 21.12435547 -7.34285156 19.96355469 -6.99023438 18.76757812 C-6.64283203 17.54490234 -6.29542969 16.32222656 -5.9375 15.0625 C-5.2439071 12.65592354 -4.54495063 10.25088442 -3.83984375 7.84765625 C-3.53425537 6.77523682 -3.22866699 5.70281738 -2.91381836 4.59790039 C-2 2 -2 2 0 0 Z " fill="#9BCDFF" transform="translate(166,187)"/>
<path d="M0 0 C1.03217651 0.00713013 1.03217651 0.00713013 2.08520508 0.0144043 C2.79201416 0.01851318 3.49882324 0.02262207 4.22705078 0.02685547 C9.57860451 0.08155318 14.92615954 0.21409782 20.27270508 0.4519043 C20.9784668 0.47430176 21.68422852 0.49669922 22.41137695 0.51977539 C26.72350158 0.74907749 29.67558494 1.43634042 33.08520508 4.1394043 C33.77270508 6.8894043 33.77270508 6.8894043 33.08520508 10.1394043 C30.01191933 15.00078356 25.4807465 18.70346978 21.11254883 22.3659668 C18.65520332 24.51555227 16.37522557 26.81366425 14.08520508 29.1394043 C14.71499268 29.12893066 15.34478027 29.11845703 15.99365234 29.10766602 C18.87829514 29.065802 21.76287374 29.03998228 24.64770508 29.0144043 C25.63834961 28.99764648 26.62899414 28.98088867 27.6496582 28.96362305 C33.19520047 28.92677559 37.88378892 29.14261903 43.08520508 31.1394043 C45.08520508 33.1394043 45.08520508 33.1394043 45.45239258 36.81518555 C45.33292687 41.45653308 43.68120908 44.49214549 41.21020508 48.3269043 C35.57176706 57.08387808 35.57176706 57.08387808 35.08520508 67.1394043 C37.75029691 69.71480553 40.84490395 71.37575468 44.08520508 73.1394043 C45.09067383 73.70272461 46.09614258 74.26604492 47.13208008 74.84643555 C49.76943681 76.30518079 52.41909209 77.73408867 55.08520508 79.1394043 C54.75520508 80.7894043 54.42520508 82.4394043 54.08520508 84.1394043 C48.7329792 84.61920198 45.1038909 83.0416382 40.52270508 80.5144043 C39.87624023 80.18311523 39.22977539 79.85182617 38.5637207 79.51049805 C33.43956585 76.7477289 29.7392061 73.44740633 27.08520508 68.1394043 C26.22516096 58.50691017 30.49706364 51.2277593 34.73754883 42.8034668 C35.0604187 42.15998291 35.38328857 41.51649902 35.71594238 40.85351562 C36.50477735 39.28168351 37.29486246 37.71047888 38.08520508 36.1394043 C37.09601074 36.14987793 36.10681641 36.16035156 35.08764648 36.17114258 C31.42378344 36.20729448 27.75993622 36.23028711 24.09594727 36.24926758 C22.50900625 36.25933618 20.92208383 36.27299197 19.33520508 36.2902832 C17.05651261 36.31449431 14.77806502 36.32587852 12.49926758 36.3347168 C11.78775543 36.34503937 11.07624329 36.35536194 10.34317017 36.36599731 C8.58888843 36.36639851 6.83523799 36.26142638 5.08520508 36.1394043 C3.08520508 34.1394043 3.08520508 34.1394043 3.00708008 31.48706055 C4.57107042 26.6307572 7.67286377 24.015091 11.33520508 20.5769043 C12.00422852 19.93043945 12.67325195 19.28397461 13.36254883 18.61791992 C14.62148892 17.40226362 15.88553291 16.19185222 17.15649414 14.98876953 C19.50058913 12.74110883 21.78882097 10.4357884 24.08520508 8.1394043 C14.51520508 7.4794043 4.94520508 6.8194043 -4.91479492 6.1394043 C-5.24479492 4.4894043 -5.57479492 2.8394043 -5.91479492 1.1394043 C-4.24745091 -0.52793971 -2.22609267 0.00766346 0 0 Z " fill="#9BCDFF" transform="translate(436.914794921875,323.860595703125)"/>
<path d="M0 0 C2.475 0.495 2.475 0.495 5 1 C5.33 16.84 5.66 32.68 6 49 C20.78023937 54.63056738 30.88557616 58.30905491 46 59 C46.38218767 60.65614657 46.71395102 62.32457024 47 64 C45.14425911 65.85574089 42.17088154 65.17392961 39.6875 65.1875 C28.74809457 65.07677727 19.72920995 63.2185931 9.6171875 59.0234375 C7.15792123 57.87860344 7.15792123 57.87860344 5 58 C4.82984375 58.61488281 4.6596875 59.22976563 4.484375 59.86328125 C4.24203125 60.67152344 3.9996875 61.47976563 3.75 62.3125 C3.51796875 63.11300781 3.2859375 63.91351563 3.046875 64.73828125 C1.76741689 67.50248366 0.64719184 68.51418717 -2 70 C-6.71572406 70.85113068 -10.76396065 70.71006516 -14.9375 68.3125 C-19.73773604 62.93041717 -20.62096095 58.87114997 -20.40234375 51.76171875 C-20 49 -20 49 -18.0625 46.25 C-12.64368838 44.03824015 -7.56830116 44.5504763 -2 46 C-1.98969254 45.43845718 -1.97938507 44.87691437 -1.96876526 44.2983551 C-1.86092315 38.47506534 -1.74630792 32.65193736 -1.62768555 26.82885742 C-1.58426493 24.65311047 -1.54259529 22.47732786 -1.50268555 20.30151367 C-1.44515498 17.18136832 -1.38141177 14.06140367 -1.31640625 10.94140625 C-1.29969376 9.96224747 -1.28298126 8.98308868 -1.26576233 7.97425842 C-1.24581711 7.07340012 -1.22587189 6.17254181 -1.20532227 5.24438477 C-1.18977798 4.44718521 -1.1742337 3.64998566 -1.15821838 2.82862854 C-1 1 -1 1 0 0 Z M-11 51 C-11.99 51.66 -12.98 52.32 -14 53 C-13.72433285 56.95122922 -13.17285643 58.78042562 -10.6875 61.9375 C-8.27504222 64.2059304 -8.27504222 64.2059304 -5.8125 64.0625 C-3.42448849 62.66263119 -2.87280531 61.61841593 -2 59 C-1.83249586 56.33290931 -1.83249586 56.33290931 -2 54 C-3.43120744 53.44191911 -4.87030355 52.90403538 -6.3125 52.375 C-7.11300781 52.07335937 -7.91351563 51.77171875 -8.73828125 51.4609375 C-9.85783203 51.23277344 -9.85783203 51.23277344 -11 51 Z " fill="#9BCDFF" transform="translate(205,321)"/>
<path d="M0 0 C1.32 0.66 2.64 1.32 4 2 C2.77773885 8.28232937 0.99636902 14.10099893 -1.3125 20.0625 C-4.55025464 28.6146264 -7.37846961 37.24143072 -10 46 C-3.19778984 51.68052265 4.03622124 56.10495832 11.75 60.4375 C14.06043445 61.75069617 16.36789225 63.06904718 18.67578125 64.38671875 C19.76971191 65.00981934 20.86364258 65.63291992 21.99072266 66.27490234 C25.67042665 68.38432863 29.32059838 70.53478353 32.9375 72.75 C34.34322266 73.60851562 34.34322266 73.60851562 35.77734375 74.484375 C37.77680776 75.84780564 39.37342559 77.21774685 41 79 C40.01 80.98 40.01 80.98 39 83 C34.90345791 81.74693566 31.37739443 80.23503372 27.69140625 78.05859375 C26.70382324 77.47907959 25.71624023 76.89956543 24.69873047 76.30249023 C23.66377441 75.68704346 22.62881836 75.07159668 21.5625 74.4375 C20.49660645 73.80851807 19.43071289 73.17953613 18.33251953 72.53149414 C16.20110382 71.27228509 14.0711888 70.010532 11.94287109 68.74609375 C9.40090758 67.2378705 6.85294033 65.74087078 4.30078125 64.25 C2.99189925 63.47965621 1.68327959 62.70886641 0.375 61.9375 C-1.28402344 60.96103516 -1.28402344 60.96103516 -2.9765625 59.96484375 C-6 58 -6 58 -12 53 C-14.97 58.61 -17.94 64.22 -21 70 C-22.32 70 -23.64 70 -25 70 C-26.59592878 65.57849239 -25.43575214 62.93481724 -23.59960938 58.87304688 C-23.25736328 58.15181641 -22.91511719 57.43058594 -22.5625 56.6875 C-22.22412109 55.94693359 -21.88574219 55.20636719 -21.53710938 54.44335938 C-20.70342822 52.62335123 -19.85330937 50.81088847 -19 49 C-22.6250395 45.21203738 -26.42797267 42.00839712 -30.625 38.875 C-37.48214286 33.73214286 -37.48214286 33.73214286 -40 31 C-39.34 29.68 -38.68 28.36 -38 27 C-34.62000312 27.61303865 -32.5854416 28.83863269 -29.890625 30.94140625 C-29.13652344 31.52470703 -28.38242188 32.10800781 -27.60546875 32.70898438 C-26.82816406 33.32064453 -26.05085937 33.93230469 -25.25 34.5625 C-24.45722656 35.17802734 -23.66445312 35.79355469 -22.84765625 36.42773438 C-20.89383225 37.94606748 -18.9449072 39.47027276 -17 41 C-14.99725761 37.99588641 -14.10097137 35.57477285 -13.01171875 32.15234375 C-12.63466797 30.98896484 -12.25761719 29.82558594 -11.86914062 28.62695312 C-11.09041275 26.19552015 -10.31430706 23.76324556 -9.54101562 21.33007812 C-3.86728929 3.86728929 -3.86728929 3.86728929 0 0 Z " fill="#9BCDFF" transform="translate(267,184)"/>
<path d="M0 0 C4.46859829 0.65167058 7.18269662 2.95774214 10 6.4375 C10.8833332 9.30656113 10.75586212 11.93777155 10.578125 14.9140625 C10.56110535 15.72056244 10.54408569 16.52706238 10.52655029 17.35800171 C10.46779696 19.92841363 10.36207705 22.49390648 10.25 25.0625 C9.15474292 42.96843682 9.15474292 42.96843682 14.9375 59.5625 C18.39956024 62.73669303 18.39956024 62.73669303 22.92578125 63.3984375 C26.7487761 63.02103033 28.71489225 62.62757183 32 60.4375 C34.1875 60.8125 34.1875 60.8125 36 61.4375 C35.9375 63.6875 35.9375 63.6875 35 66.4375 C30.48048413 69.92129348 26.83500355 71.12145958 21.12890625 70.8125 C15.40310686 69.80391882 11.18820304 65.24580405 7.64526367 60.88574219 C1.12281457 51.17998175 2.64646234 37.84857234 2.8125 26.6875 C2.82758134 24.91146974 2.84126361 23.13542703 2.85351562 21.359375 C2.88623142 17.05177011 2.93782064 12.7447762 3 8.4375 C0.06220048 7.54279473 -2.03181605 7.40817125 -5.04663086 7.95068359 C-6.2232151 8.15617325 -6.2232151 8.15617325 -7.42356873 8.36581421 C-8.26218948 8.5209549 -9.10081024 8.67609558 -9.96484375 8.8359375 C-10.83516739 8.99035309 -11.70549103 9.14476868 -12.60218811 9.30386353 C-15.38207241 9.79901956 -18.15972519 10.30565768 -20.9375 10.8125 C-22.80390327 11.14657825 -24.67043854 11.47991998 -26.53710938 11.8125 C-35.20148337 13.33292055 -35.20148337 13.33292055 -43.83032227 15.03759766 C-46.89467609 15.60240148 -49.89334975 15.49841471 -53 15.4375 C-53.66 14.1175 -54.32 12.7975 -55 11.4375 C-52.75465144 9.19215144 -51.96698161 9.04461039 -48.93676758 8.49194336 C-48.09862015 8.3351561 -47.26047272 8.17836884 -46.39692688 8.01683044 C-45.48863632 7.85529984 -44.58034576 7.69376923 -43.64453125 7.52734375 C-42.24203377 7.26879356 -42.24203377 7.26879356 -40.811203 7.00502014 C-37.8129283 6.45431981 -34.81276911 5.91471697 -31.8125 5.375 C-29.80911832 5.0078509 -27.80586138 4.64002045 -25.80273438 4.27148438 C-17.21418669 2.69965778 -8.63985765 1.25997924 0 0 Z " fill="#9BCDFF" transform="translate(367,200.5625)"/>
<path d="M0 0 C0.95860192 1.84119136 1.90482255 3.69025664 2.77636719 5.57421875 C5.25733475 10.49259338 8.53121809 14.95248724 11.625 19.5 C16.38293384 26.54986539 21.07138937 33.61343353 25.5 40.875 C29.24498724 46.97674645 33.39441309 52.52508544 38 58 C39.4198646 59.78913342 40.83654487 61.58079865 42.25 63.375 C44.67550418 66.45198257 47.18545347 69.27262969 50 72 C49.01 73.98 49.01 73.98 48 76 C40.25205199 74.6644748 35.1433971 65.91920188 30.6875 60 C30.12844971 59.26233398 29.56939941 58.52466797 28.9934082 57.76464844 C21.43244595 47.69486554 14.69282915 37.1878059 8.16015625 26.4296875 C4.039571 19.7820478 -0.52346036 13.41033893 -5 7 C-9.40284073 8.5394548 -11.5772646 11.98395924 -14.1875 15.625 C-14.66582275 16.28072998 -15.14414551 16.93645996 -15.63696289 17.61206055 C-19.56732885 23.12082915 -22.91735896 28.87739997 -26.0065918 34.89501953 C-29.10292523 40.77072138 -29.10292523 40.77072138 -33 42 C-33.66 41.34 -34.32 40.68 -35 40 C-34.09447457 27.43307396 -19.46551728 9.4983963 -10.5234375 1.20703125 C-6.59065385 -1.90894349 -4.28016482 -2.69968181 0 0 Z " fill="#9BCDFF" transform="translate(563,174)"/>
<path d="M0 0 C1.32 0.66 2.64 1.32 4 2 C3.39455941 8.01312583 2.17241838 13.5740974 0.5 19.375 C0.27441406 20.18066406 0.04882812 20.98632812 -0.18359375 21.81640625 C-1.84800314 27.69600627 -1.84800314 27.69600627 -3 30 C7.46337048 30.08873762 17.87877059 29.73894347 28.33007812 29.26757812 C29.52181641 29.21923828 30.71355469 29.17089844 31.94140625 29.12109375 C33.01076416 29.0739624 34.08012207 29.02683105 35.18188477 28.97827148 C37.67949398 28.9975288 39.63098866 29.25836853 42 30 C42.495 32.475 42.495 32.475 43 35 C39.55708914 36.55294004 36.96468248 37.23233425 33.1953125 37.125 C32.23890869 37.10824219 31.28250488 37.09148437 30.29711914 37.07421875 C29.25031982 37.04972656 28.20352051 37.02523437 27.125 37 C13.78085289 36.82982611 0.53670993 37.49218457 -12.77880859 38.2890625 C-23.86544303 38.93591051 -34.89526654 39.11198835 -46 39 C-46.66 37.68 -47.32 36.36 -48 35 C-45.07251715 32.07251715 -41.86861215 32.53660307 -37.9296875 32.3671875 C-36.73534592 32.30484421 -36.73534592 32.30484421 -35.51687622 32.24124146 C-32.96993959 32.11033072 -30.42258616 31.99252186 -27.875 31.875 C-26.14969625 31.78862158 -24.42443486 31.70139272 -22.69921875 31.61328125 C-18.46657441 31.39897737 -14.2335103 31.19642275 -10 31 C-8.54765105 25.68975129 -7.09809053 20.37906775 -5.68359375 15.05859375 C-5.26841874 13.51817806 -4.85305672 11.97781276 -4.4375 10.4375 C-4.12522461 9.24930664 -4.12522461 9.24930664 -3.80664062 8.03710938 C-2.22640698 2.22640698 -2.22640698 2.22640698 0 0 Z " fill="#9BCDFF" transform="translate(266,139)"/>
<path d="M0 0 C4.46273898 5.3613448 5.282992 10.83492382 5.2265625 17.57421875 C5.22229248 18.3537793 5.21802246 19.13333984 5.21362305 19.93652344 C4.90585887 30.64193192 1.96260392 40.04768542 -5.2734375 48.07421875 C-6.9234375 47.74421875 -8.5734375 47.41421875 -10.2734375 47.07421875 C-9.90555582 43.39540199 -9.10141323 40.50517252 -7.3984375 37.26171875 C-3.07577958 28.93192538 -0.08944693 20.09586586 -3 10.73828125 C-5.63545952 4.97455271 -9.23273893 1.79214282 -15.0859375 -0.61328125 C-23.31649278 -3.42819235 -31.67782693 -3.04370883 -40.2734375 -2.92578125 C-40.65562517 -4.58192782 -40.98738852 -6.25035149 -41.2734375 -7.92578125 C-31.91723826 -17.28198049 -7.76798209 -6.60118643 0 0 Z " fill="#9BCDFF" transform="translate(312.2734375,357.92578125)"/>
<path d="M0 0 C-1.0828125 1.0209375 -1.0828125 1.0209375 -2.1875 2.0625 C-5.23455693 5.09214518 -7.57207954 8.46217304 -10 12 C-8.84894775 11.83846436 -7.69789551 11.67692871 -6.51196289 11.51049805 C-2.26316372 10.98160697 1.91362205 10.83880926 6.19140625 10.83203125 C6.94034653 10.82870285 7.6892868 10.82537445 8.46092224 10.82194519 C10.03147779 10.81692058 11.60204385 10.81453547 13.17260742 10.81469727 C15.5599123 10.81250238 17.94676042 10.7942765 20.33398438 10.77539062 C21.86979011 10.77245731 23.405598 10.7704721 24.94140625 10.76953125 C25.64576309 10.76234573 26.35011993 10.75516022 27.07582092 10.74775696 C32.35567716 10.77184465 37.76598307 11.12630838 41.9375 14.625 C42.288125 15.07875 42.63875 15.5325 43 16 C42.34 17.32 41.68 18.64 41 20 C40.19127441 19.78670044 40.19127441 19.78670044 39.36621094 19.5690918 C32.03161908 17.85272513 24.83674686 17.72668408 17.34277344 17.79418945 C15.2674509 17.81234731 13.19258106 17.81469891 11.1171875 17.81445312 C8.40073586 17.81955295 5.68697244 17.85249522 2.97119141 17.9128418 C0.33856962 17.97062158 -2.29498011 17.99589534 -4.92822266 17.98754883 C-11.3159744 17.96891439 -11.3159744 17.96891439 -17.02929688 20.39428711 C-18.59269992 22.20416134 -19.73096338 23.96509953 -20.875 26.0625 C-21.49568359 27.05733398 -21.49568359 27.05733398 -22.12890625 28.07226562 C-23.12912958 29.68890566 -24.07114306 31.34132689 -25 33 C-27.45764557 30.54235443 -27.84284437 29.45742385 -28 26 C-26.69593116 23.98079663 -25.36176581 21.98075027 -24 20 C-24.03222656 19.17113281 -24.06445312 18.34226563 -24.09765625 17.48828125 C-24 15 -24 15 -22.4609375 13.48046875 C-21.77257812 13.05378906 -21.08421875 12.62710938 -20.375 12.1875 C-16.40648252 9.48553065 -13.91832777 6.58413989 -11.2265625 2.63671875 C-8.39932399 -1.13593391 -4.29688383 -0.06930458 0 0 Z " fill="#9BCDFF" transform="translate(342,143)"/>
<path d="M0 0 C2.0625 0.1875 2.0625 0.1875 4 1 C5.34427721 5.03283163 3.91795093 7.50309234 2.5 11.3125 C-4.29423221 30.72632217 -8.36799961 50.97416141 -10.58251953 71.39208984 C-10.71384277 72.49504395 -10.84516602 73.59799805 -10.98046875 74.734375 C-11.13358521 76.19182129 -11.13358521 76.19182129 -11.28979492 77.67871094 C-12 80 -12 80 -14.0637207 81.32910156 C-14.70269287 81.55049805 -15.34166504 81.77189453 -16 82 C-18 80 -18 80 -18.22265625 76.11328125 C-18.08734541 70.40634739 -17.31190197 64.82229598 -16.4375 59.1875 C-16.26404053 58.06819092 -16.09058105 56.94888184 -15.91186523 55.7956543 C-8.11555612 8.11555612 -8.11555612 8.11555612 0 0 Z " fill="#9BCDFF" transform="translate(555,310)"/>
<path d="M0 0 C0 1.32 0 2.64 0 4 C-1.51171875 5.45703125 -1.51171875 5.45703125 -3.6875 6.8125 C-4.49445313 7.31652344 -5.30140625 7.82054687 -6.1328125 8.33984375 C-11.3516784 11.36166665 -16.65541845 14.20793112 -22 17 C-16.22956518 21.35096957 -9.70891937 23.8218229 -3.0625 26.5625 C-0.7617141 27.52212427 1.53906728 28.48175938 3.83984375 29.44140625 C5.44448486 30.1068042 5.44448486 30.1068042 7.08154297 30.78564453 C10.39869032 32.16589306 13.70217894 33.57430443 17 35 C17 36.32 17 37.64 17 39 C12.44218888 40.42431597 9.27277671 39.39736464 5 37.6875 C3.98123779 37.29123413 3.98123779 37.29123413 2.94189453 36.88696289 C-3.17374232 34.44713415 -9.16159673 31.72580805 -15.125 28.9375 C-16.45724609 28.32104614 -16.45724609 28.32104614 -17.81640625 27.69213867 C-22.8350164 25.29216215 -26.90149329 22.76928241 -31 19 C-30.61753065 16.53611659 -30.27005342 15.26819128 -28.47753906 13.48803711 C-23.39591517 9.8665264 -18.2001968 6.60098472 -12.75 3.5625 C-11.96109375 3.10423828 -11.1721875 2.64597656 -10.359375 2.17382812 C-9.59625 1.74650391 -8.833125 1.31917969 -8.046875 0.87890625 C-7.02352051 0.29991577 -7.02352051 0.29991577 -5.97949219 -0.29077148 C-3.58462952 -1.1488223 -2.36227187 -0.83484985 0 0 Z " fill="#9BCDFF" transform="translate(492,229)"/>
<path d="M0 0 C0.99 1.98 0.99 1.98 2 4 C-0.78003289 6.78003289 -2.49370424 6.26805532 -6.38671875 6.30859375 C-7.72022187 6.33137943 -9.05371778 6.35459056 -10.38720703 6.37817383 C-11.43983734 6.39190536 -11.43983734 6.39190536 -12.51373291 6.40591431 C-32.70356073 6.69928047 -51.97110597 8.35342083 -71.23828125 14.7421875 C-71.81964844 14.82726562 -72.40101562 14.91234375 -73 15 C-73.66 14.34 -74.32 13.68 -75 13 C-74.85546875 11.00390625 -74.85546875 11.00390625 -74 9 C-67.66666534 4.33250522 -58.53102142 3.30940599 -51 2 C-49.85015625 1.79246094 -48.7003125 1.58492187 -47.515625 1.37109375 C-31.84064305 -0.95413698 -15.80297295 -0.17590431 0 0 Z " fill="#9BCDFF" transform="translate(190,167)"/>
<path d="M0 0 C1.32 0.33 2.64 0.66 4 1 C4 5.61354279 3.55601692 5.95785755 0.5 9.109375 C-0.221875 9.86347656 -0.94375 10.61757812 -1.6875 11.39453125 C-2.450625 12.17183594 -3.21375 12.94914063 -4 13.75 C-4.763125 14.54277344 -5.52625 15.33554688 -6.3125 16.15234375 C-8.1996679 18.11028044 -10.09558236 20.05886154 -12 22 C-11.68289063 22.61359375 -11.36578125 23.2271875 -11.0390625 23.859375 C-10.04371515 25.90994021 -9.47588139 27.77922017 -9 30 C-10.98 30.99 -10.98 30.99 -13 32 C-14.65 30.68 -16.3 29.36 -18 28 C-18.26039063 28.58136719 -18.52078125 29.16273438 -18.7890625 29.76171875 C-20.08128978 32.15025497 -21.49280598 33.86044288 -23.375 35.8125 C-23.96023438 36.43769531 -24.54546875 37.06289063 -25.1484375 37.70703125 C-27 39 -27 39 -29.2265625 38.69921875 C-29.81179688 38.46847656 -30.39703125 38.23773438 -31 38 C-31 33.0291691 -29.8345788 32.26983318 -26.5 28.75 C-25.6646875 27.85796875 -24.829375 26.9659375 -23.96875 26.046875 C-22.99421875 25.03367188 -22.99421875 25.03367188 -22 24 C-22.495 23.2575 -22.99 22.515 -23.5 21.75 C-25 19 -25 19 -25 15 C-23.1875 14.3125 -23.1875 14.3125 -21 14 C-19.25 15.4375 -19.25 15.4375 -18 17 C-14.85243351 15.61917102 -12.86116028 14.05200845 -10.546875 11.5234375 C-9.928125 10.853125 -9.309375 10.1828125 -8.671875 9.4921875 C-8.03765625 8.79351562 -7.4034375 8.09484375 -6.75 7.375 C-6.1003125 6.66859375 -5.450625 5.9621875 -4.78125 5.234375 C-3.18224215 3.49427822 -1.58877761 1.74943338 0 0 Z " fill="#9BCDFF" transform="translate(358,222)"/>
<path d="M0 0 C0.495 2.475 0.495 2.475 1 5 C-5.88690543 7.87322755 -12.9830309 9.57643504 -20.24389648 11.21704102 C-22.30052522 11.6847766 -24.35219685 12.17103512 -26.40429688 12.65820312 C-34.01961675 14.4179171 -41.17068642 15.49158649 -49 15 C-49.38218767 13.34385343 -49.71395102 11.67542976 -50 10 C-48.31766788 8.31766788 -46.07410373 8.36727391 -43.77734375 7.94921875 C-42.68848877 7.74707764 -41.59963379 7.54493652 -40.4777832 7.33666992 C-39.30948975 7.12244385 -38.14119629 6.90821777 -36.9375 6.6875 C-27.94009919 5.01058049 -19.0850344 3.158229 -10.26953125 0.69921875 C-6.76042811 -0.05123461 -3.57791789 -0.12274941 0 0 Z " fill="#9BCDFF" transform="translate(266,335)"/>
<path d="M0 0 C32.45848373 2.18589535 32.45848373 2.18589535 42.52734375 10.47265625 C42.9346875 10.983125 43.34203125 11.49359375 43.76171875 12.01953125 C43.44921875 14.70703125 43.44921875 14.70703125 42.76171875 17.01953125 C39.24927153 17.44528243 37.86719369 17.08592583 34.8203125 15.16796875 C29.86544331 12.23675467 24.48456404 11.44369584 18.88671875 10.39453125 C16.80590211 9.98612252 14.72517153 9.57727503 12.64453125 9.16796875 C11.15808105 8.88131348 11.15808105 8.88131348 9.64160156 8.58886719 C5.66463169 7.80264357 1.71448272 6.91901199 -2.23828125 6.01953125 C-2.62046892 4.36338468 -2.95223227 2.69496101 -3.23828125 1.01953125 C-2.23828125 0.01953125 -2.23828125 0.01953125 0 0 Z " fill="#9BCDFF" transform="translate(340.23828125,342.98046875)"/>
<path d="M0 0 C4.13737079 0.59683344 7.13451007 2.92388938 10.4375 5.3125 C11.047146 5.75037842 11.65679199 6.18825684 12.28491211 6.6394043 C20.89619202 12.96499466 28.48573497 20.4305844 36 28 C35.34 29.32 34.68 30.64 34 32 C29.94404741 31.47576123 28.27873561 29.49859954 25.5625 26.5625 C19.85313023 20.66787044 13.56768435 15.89308821 7 11 C5.2254157 9.62984444 3.45406667 8.25547741 1.6875 6.875 C0.96949219 6.31554687 0.25148438 5.75609375 -0.48828125 5.1796875 C-1.23658203 4.59574219 -1.23658203 4.59574219 -2 4 C-1.34 2.68 -0.68 1.36 0 0 Z " fill="#9BCDFF" transform="translate(531,409)"/>
<path d="M0 0 C0.66 1.32 1.32 2.64 2 4 C-2.33160622 8.33160622 -10.8194655 7.07993099 -16.66015625 7.09765625 C-19.46101613 7.09512596 -22.26169604 7.07944357 -25.0625 7.0625 C-26.51497241 7.05747414 -27.96744651 7.05291316 -29.41992188 7.04882812 C-32.94665015 7.03791042 -36.47331402 7.02070586 -40 7 C-40.66 5.68 -41.32 4.36 -42 3 C-39.27263095 0.27263095 -37.66510324 0.69166893 -33.84765625 0.5859375 C-31.96916992 0.52792969 -31.96916992 0.52792969 -30.05273438 0.46875 C-28.07756836 0.42234375 -28.07756836 0.42234375 -26.0625 0.375 C-24.78052734 0.33632812 -23.49855469 0.29765625 -22.17773438 0.2578125 C-14.78376088 0.04666384 -7.39677954 -0.05196125 0 0 Z " fill="#9BCDFF" transform="translate(371,184)"/>
<path d="M0 0 C1.60279192 0.00015914 3.20558896 0.00585476 4.80834961 0.01586914 C5.65038437 0.01728409 6.49241913 0.01869904 7.35997009 0.02015686 C10.06024671 0.02577276 12.76044163 0.03832791 15.46069336 0.05102539 C17.28686404 0.05603834 19.11303602 0.06060161 20.93920898 0.06469727 C25.42556878 0.07574735 29.9118672 0.0930226 34.39819336 0.11352539 C34.78038103 1.76967196 35.11214438 3.43809563 35.39819336 5.11352539 C34.39819336 6.11352539 34.39819336 6.11352539 30.79638672 6.22705078 C29.19359479 6.22689164 27.59079776 6.22119602 25.98803711 6.21118164 C25.14600235 6.20976669 24.30396759 6.20835175 23.43641663 6.20689392 C20.73614001 6.20127802 18.03594508 6.18872287 15.33569336 6.17602539 C13.50952268 6.17101244 11.6833507 6.16644918 9.85717773 6.16235352 C5.37081794 6.15130343 0.88451952 6.13402818 -3.60180664 6.11352539 C-3.98399431 4.45737882 -4.31575766 2.78895515 -4.60180664 1.11352539 C-3.60180664 0.11352539 -3.60180664 0.11352539 0 0 Z " fill="#9BCDFF" transform="translate(352.601806640625,383.886474609375)"/>
<path d="M0 0 C2.2890625 0.015625 2.2890625 0.015625 5 1 C6.72690415 3.2669326 8.03702092 5.27448814 9.375 7.75 C9.74238281 8.37132812 10.10976563 8.99265625 10.48828125 9.6328125 C12.15259145 12.60972961 13.04480251 14.51613291 12.7265625 17.953125 C12.36691406 18.96632813 12.36691406 18.96632813 12 20 C9.76953125 20.3828125 9.76953125 20.3828125 7 20 C5.24722516 17.93827183 4.01152165 16.18638505 2.6875 13.875 C2.32849609 13.30523437 1.96949219 12.73546875 1.59960938 12.1484375 C-0.69455864 8.30297492 -1.49542242 5.45219614 -1 1 C-0.67 0.67 -0.34 0.34 0 0 Z " fill="#9BCDFF" transform="translate(288,312)"/>
<path d="" fill="#9BCDFF" transform="translate(0,0)"/>
<path d="" fill="#9BCDFF" transform="translate(0,0)"/>
<path d="" fill="#9BCDFF" transform="translate(0,0)"/>
</svg>
